<svg width="25" height="24" viewBox="0 0 25 24" fill="none" xmlns="http://www.w3.org/2000/svg">
<path d="M8.49353 22C4.31353 22 3.47353 19.47 4.83353 16.39L9.08353 6.74H8.78353C8.13353 6.74 7.53353 6.48 7.10353 6.05C6.66353 5.62 6.40353 5.02 6.40353 4.37C6.40353 3.07 7.46353 2 8.77353 2H15.8835C16.5435 2 17.1335 2.27 17.5635 2.7C18.1235 3.26 18.4035 4.08 18.1935 4.95C17.9235 6.03 16.8835 6.74 15.7735 6.74H15.6135L19.8335 16.4C21.1835 19.48 20.3035 22 16.1635 22H8.49353Z" stroke="#79747E" stroke-width="1.5" stroke-linecap="round" stroke-linejoin="round"/>
<path d="M6.27344 13.12C6.27344 13.12 9.33344 13 12.3334 14C15.3334 15 18.1634 13.11 18.1634 13.11" stroke="#79747E" stroke-width="1.5" stroke-linecap="round" stroke-linejoin="round"/>
</svg>
