<svg width="18" height="24" viewBox="0 0 18 24" fill="none" xmlns="http://www.w3.org/2000/svg">
<path d="M9.15468 17.2756C9.11693 17.2756 9.08005 17.2747 9.04229 17.2747C8.92416 17.2698 8.81255 17.2193 8.73096 17.1337C8.64936 17.0482 8.60417 16.9343 8.60489 16.816C8.60561 16.6978 8.65219 16.5845 8.73482 16.4999C8.81745 16.4154 8.92967 16.3662 9.04785 16.3627C9.08093 16.3689 9.11663 16.3636 9.15029 16.3636C12.3531 16.3636 14.6457 14.4799 15.4482 11.1828C15.4737 11.0771 15.5362 10.984 15.6244 10.9204C15.7127 10.8568 15.8208 10.827 15.9291 10.8363C16.448 10.8808 16.7331 10.6039 16.8803 10.3651C17.113 9.9922 17.1514 9.46039 16.9679 9.15571C16.8739 9 16.7375 8.9359 16.5356 8.94644C16.2926 8.97307 16.0658 8.772 16.0494 8.52058C16.0456 8.46072 16.0537 8.40069 16.0731 8.34394C16.0926 8.28719 16.123 8.23483 16.1627 8.18984C16.2024 8.14486 16.2505 8.10814 16.3044 8.08177C16.3583 8.05541 16.4169 8.03992 16.4767 8.03619C17.0097 8.00605 17.4821 8.23814 17.7528 8.68741C18.1146 9.28741 18.0757 10.1754 17.6586 10.8462C17.336 11.3643 16.8347 11.678 16.2481 11.7404C15.2641 15.2681 12.6991 17.2756 9.15468 17.2756Z" fill="white"/>
<path d="M6.30863 9.74137C6.62449 9.74137 6.88054 9.48623 6.88054 9.17151C6.88054 8.85679 6.62449 8.60166 6.30863 8.60166C5.99278 8.60166 5.73673 8.85679 5.73673 9.17151C5.73673 9.48623 5.99278 9.74137 6.30863 9.74137Z" fill="white"/>
<path d="M6.30863 10.1971C5.74112 10.1971 5.27897 9.73756 5.27897 9.17181C5.27897 8.60605 5.74141 8.14566 6.30863 8.14566C6.87644 8.14566 7.338 8.60634 7.338 9.17181C7.338 9.73727 6.87615 10.1971 6.30863 10.1971ZM6.30863 9.05766C6.27836 9.05766 6.24933 9.06968 6.22792 9.09109C6.20651 9.1125 6.19449 9.14153 6.19449 9.17181C6.19449 9.29649 6.42278 9.29649 6.42278 9.17181C6.42282 9.1568 6.41989 9.14194 6.41417 9.12808C6.40845 9.11421 6.40004 9.10161 6.38943 9.09101C6.37883 9.0804 6.36623 9.07199 6.35236 9.06627C6.33849 9.06055 6.32363 9.05762 6.30863 9.05766Z" fill="white"/>
<path d="M11.9697 9.62839C12.2856 9.62839 12.5416 9.37326 12.5416 9.05854C12.5416 8.74382 12.2856 8.48868 11.9697 8.48868C11.6539 8.48868 11.3978 8.74382 11.3978 9.05854C11.3978 9.37326 11.6539 9.62839 11.9697 9.62839Z" fill="white"/>
<path d="M11.9697 10.0847C11.4019 10.0847 10.9403 9.62429 10.9403 9.05854C10.9403 8.49278 11.4019 8.03268 11.9697 8.03268C12.5375 8.03268 12.9994 8.49307 12.9994 9.05854C12.9994 9.624 12.5369 10.0847 11.9697 10.0847ZM11.9697 8.94468C11.9547 8.94464 11.9398 8.94757 11.926 8.95329C11.9121 8.95902 11.8995 8.96742 11.8889 8.97803C11.8783 8.98864 11.8699 9.00124 11.8642 9.0151C11.8584 9.02897 11.8555 9.04383 11.8556 9.05883C11.8556 9.18527 12.0839 9.18527 12.0839 9.05883C12.0839 9.02856 12.0718 8.99952 12.0504 8.97812C12.029 8.95671 12 8.94468 11.9697 8.94468Z" fill="white"/>
<path d="M9.15146 13.224C9.37292 13.224 9.55244 12.9689 9.55244 12.6541C9.55244 12.3394 9.37292 12.0843 9.15146 12.0843C8.93001 12.0843 8.75049 12.3394 8.75049 12.6541C8.75049 12.9689 8.93001 13.224 9.15146 13.224Z" fill="white"/>
<path d="M9.15146 13.6803C9.62557 13.6803 10.0099 13.2209 10.0099 12.6541C10.0099 12.0874 9.62557 11.628 9.15146 11.628C8.67736 11.628 8.29302 12.0874 8.29302 12.6541C8.29302 13.2209 8.67736 13.6803 9.15146 13.6803Z" fill="white"/>
<path d="M8.99137 17.2756C5.44697 17.2756 2.8819 15.269 1.8979 11.7404C1.31136 11.678 0.809999 11.3646 0.48717 10.8462C0.0703891 10.1754 0.0314619 9.28771 0.393218 8.68741C0.631169 8.29171 1.02015 8.06107 1.47907 8.03532C1.698 3.56341 5.04629 0 9.13097 0C13.3564 0 16.794 3.81366 16.794 8.50127C16.794 8.75298 16.5891 8.95727 16.3362 8.95727C16.2763 8.95738 16.2168 8.94568 16.1614 8.92282C16.1059 8.89996 16.0555 8.8664 16.013 8.82406C15.9705 8.78171 15.9368 8.7314 15.9138 8.67602C15.8908 8.62063 15.8789 8.56125 15.8788 8.50127C15.8788 4.31678 12.8519 0.912 9.13097 0.912C5.4101 0.912 2.38317 4.31678 2.38317 8.50127C2.38317 8.62507 2.33254 8.74332 2.24385 8.82907C2.15429 8.91541 2.03722 8.96078 1.9099 8.95727L1.62424 8.94732C1.41293 8.92976 1.27214 9 1.17819 9.15571C0.994681 9.4601 1.03302 9.9922 1.26541 10.3654C1.41293 10.603 1.69683 10.8755 2.21693 10.8366C2.325 10.8285 2.43247 10.8588 2.52042 10.9221C2.60837 10.9855 2.67118 11.0778 2.6978 11.1828C3.50854 14.513 5.79878 16.3967 9.09293 16.3627C9.33468 16.3387 9.55244 16.5615 9.55595 16.8135C9.55661 16.8735 9.54543 16.933 9.52304 16.9887C9.50066 17.0443 9.46752 17.095 9.42552 17.1379C9.38352 17.1807 9.33348 17.2149 9.27827 17.2384C9.22305 17.2618 9.16375 17.2742 9.10375 17.2747C9.066 17.2747 9.02854 17.2756 8.99137 17.2756Z" fill="white"/>
<path d="M14.8319 24L3.90658 23.9982C3.23663 23.9982 2.64424 23.5806 2.43322 22.958C2.22044 22.33 2.12971 21.8055 2.12971 21.2043V20.7117C2.12971 18.5377 3.34668 16.5585 5.30502 15.5459C5.41266 15.4898 5.53814 15.4788 5.65389 15.5152C5.76963 15.5517 5.86618 15.6326 5.92229 15.7402C6.03849 15.9638 5.95127 16.2389 5.72678 16.3548C4.07254 17.2106 3.04493 18.8798 3.04493 20.7117V21.2043C3.04493 21.7077 3.11868 22.1306 3.30014 22.666C3.38561 22.9171 3.62971 23.0862 3.90717 23.0862L14.8324 23.088C15.1055 23.088 15.3549 22.9153 15.4389 22.6665C15.6198 22.1315 15.6935 21.7074 15.6935 21.2043V20.7117C15.6935 18.7566 14.5231 16.9917 12.7119 16.214C12.657 16.1903 12.6072 16.1559 12.5656 16.1129C12.5239 16.0699 12.4911 16.0191 12.469 15.9635C12.4245 15.851 12.4264 15.7255 12.4744 15.6145C12.5224 15.5035 12.6126 15.4161 12.725 15.3716C12.8375 15.327 12.963 15.329 13.074 15.377C15.2211 16.2989 16.6087 18.3925 16.6087 20.7117V21.2043C16.6087 21.8063 16.518 22.3311 16.3058 22.958C16.0954 23.5815 15.5027 24 14.8319 24ZM9.12571 3.99366H9.09497C8.97375 3.99173 8.85824 3.94176 8.77383 3.85472C8.68943 3.76768 8.64303 3.65069 8.64483 3.52946C8.64721 3.40972 8.69651 3.2957 8.78212 3.21194C8.86774 3.12819 8.98282 3.0814 9.10258 3.08166C9.10844 3.08078 9.1178 3.08166 9.12541 3.08166C9.61712 3.08166 10.021 2.68712 10.0289 2.19541C10.0321 2.03243 10.0029 1.87043 9.94283 1.71887C9.88278 1.56731 9.79315 1.42923 9.67917 1.31268C9.56551 1.19525 9.42977 1.10144 9.27973 1.03664C9.1297 0.971845 8.96834 0.937344 8.80493 0.935122C8.68388 0.933272 8.56851 0.883485 8.48412 0.796682C8.39973 0.70988 8.35322 0.59315 8.35478 0.472098C8.35693 0.352173 8.40612 0.237897 8.49175 0.153909C8.57738 0.0699206 8.69259 0.0229492 8.81254 0.023122H8.82015C9.39673 0.0319025 9.93556 0.265464 10.3368 0.678732C10.7381 1.092 10.9535 1.6361 10.9441 2.21151C10.9278 3.20019 10.1147 3.99366 9.12571 3.99366Z" fill="white"/>
<path d="M5.2898 23.9982C5.22979 23.9984 5.17034 23.9867 5.11485 23.9639C5.05936 23.941 5.00891 23.9075 4.9664 23.8651C4.92388 23.8228 4.89014 23.7725 4.86708 23.7171C4.84403 23.6617 4.83212 23.6023 4.83205 23.5422V16.3662C4.83205 16.1145 5.03693 15.9102 5.2898 15.9102C5.34981 15.9101 5.40926 15.9218 5.46476 15.9446C5.52025 15.9674 5.57069 16.001 5.61321 16.0434C5.65572 16.0857 5.68947 16.136 5.71252 16.1914C5.73558 16.2468 5.74748 16.3062 5.74756 16.3662V23.5422C5.74756 23.7942 5.54268 23.9982 5.2898 23.9982ZM13.2288 23.9982C13.1688 23.9984 13.1094 23.9867 13.054 23.9638C12.9985 23.9409 12.9481 23.9074 12.9056 23.865C12.8631 23.8227 12.8294 23.7724 12.8064 23.717C12.7833 23.6616 12.7714 23.6022 12.7714 23.5422V16.3662C12.7714 16.1145 12.9762 15.9102 13.2288 15.9102C13.2888 15.9101 13.3483 15.9218 13.4038 15.9446C13.4593 15.9674 13.5097 16.001 13.5522 16.0434C13.5947 16.0857 13.6285 16.136 13.6515 16.1914C13.6746 16.2468 13.6865 16.3062 13.6866 16.3662V23.5422C13.6866 23.7942 13.4817 23.9982 13.2288 23.9982ZM9.26444 21.485C8.00151 21.485 6.97361 20.4606 6.97361 19.202V16.687C6.97361 16.435 7.17849 16.231 7.43136 16.231C7.49135 16.2309 7.55077 16.2426 7.60623 16.2655C7.66169 16.2883 7.7121 16.3219 7.75458 16.3642C7.79706 16.4066 7.83079 16.4569 7.85382 16.5123C7.87686 16.5677 7.88875 16.627 7.88883 16.687V19.202C7.88883 19.9583 8.50639 20.5727 9.26444 20.5727C10.0228 20.5727 10.64 19.958 10.64 19.202V16.687C10.64 16.435 10.8449 16.231 11.0978 16.231C11.1578 16.2309 11.2172 16.2426 11.2727 16.2655C11.3281 16.2883 11.3785 16.3219 11.421 16.3642C11.4635 16.4066 11.4972 16.4569 11.5203 16.5123C11.5433 16.5677 11.5552 16.627 11.5553 16.687V19.202C11.5553 20.4606 10.5274 21.485 9.26444 21.485Z" fill="white"/>
</svg>
