<svg width="25" height="24" viewBox="0 0 25 24" fill="none" xmlns="http://www.w3.org/2000/svg">
<path d="M13.3274 21.3661C12.2695 22.2222 10.988 22.7403 9.51556 22.9039C4.18768 22.3149 2.6553 17.3688 2.56805 14.3313C2.56805 14.3258 2.57895 14.3204 2.58441 14.3095C2.60077 14.2768 4.34582 11.0757 9.51556 11.0757C14.6853 11.0757 16.3704 14.1677 16.4467 14.3095C16.4467 14.3149 16.4576 14.3204 16.4631 14.3313C16.4413 15.182 16.3104 16.0654 16.0813 16.9107C15.9995 17.1997 16.174 17.4997 16.4631 17.5815C16.7521 17.6633 17.052 17.4888 17.1338 17.1997C17.4065 16.2072 17.5537 15.1602 17.5646 14.1677C17.6901 13.8569 18.0336 12.9134 18.1863 11.7791C18.4099 10.0995 17.9954 8.64894 16.9593 7.46558C16.3867 6.81118 15.6614 6.29312 14.8653 5.88957C14.8925 5.67689 14.9089 5.46421 14.9089 5.24608C14.9089 2.35583 12.4876 0 9.51556 0C6.54351 0 4.12224 2.35037 4.12224 5.24608C4.12224 5.46421 4.1386 5.67689 4.16586 5.88957C3.36968 6.29312 2.64439 6.81118 2.07179 7.46558C1.03567 8.64894 0.621215 10.0995 0.844801 11.7791C0.997493 12.9134 1.34105 13.8514 1.46648 14.1677C1.5101 18.5249 4.01317 23.4274 9.45557 24C9.47193 24 9.54828 24 9.57009 24C11.2824 23.82 12.7766 23.2202 14.0145 22.2222C14.249 22.0314 14.2872 21.6878 14.0963 21.4533C13.9055 21.2188 13.5619 21.1806 13.3274 21.3715V21.3661ZM5.45285 6.5167C5.91092 6.3422 6.37991 6.20041 6.85434 6.0968C5.8673 8.10907 6.19995 10.1704 6.24903 10.4376C5.56191 10.6394 4.95114 10.8957 4.43853 11.1793C4.27493 10.1922 4.18222 8.2454 5.45285 6.52215V6.5167ZM14.598 11.1738C14.08 10.8903 13.4747 10.6394 12.7875 10.4322C12.8366 10.165 13.1693 8.10361 12.1822 6.09134C12.6567 6.20041 13.1311 6.3422 13.5837 6.51125C14.8543 8.23449 14.7616 10.1813 14.598 11.1684V11.1738ZM8.26675 5.85685C8.5067 5.82958 8.74664 5.81322 8.97568 5.80232V10.0014C8.38127 10.0286 7.83049 10.0832 7.31788 10.1759C7.25789 9.76687 7.00158 7.61282 8.26675 5.8514V5.85685ZM10.0663 5.80232C10.2954 5.81322 10.5299 5.82958 10.7753 5.85685C12.0404 7.61282 11.7896 9.77233 11.7241 10.1813C11.2115 10.0886 10.6608 10.0286 10.0663 10.0068V5.80232ZM9.52101 4.6953C8.2722 4.6953 6.81072 4.89162 5.44194 5.35515C5.57827 4.68439 7.09974 3.81731 9.52101 3.81731C11.9423 3.81731 13.4638 4.68439 13.6001 5.35515C12.2313 4.89162 10.7698 4.6953 9.52101 4.6953ZM16.1413 8.17996C16.9593 9.11793 17.2865 10.2795 17.1066 11.6319C17.0411 12.1336 16.9266 12.5917 16.823 12.9625C16.534 12.619 16.1304 12.2154 15.5905 11.8119C15.765 11.0757 16.0432 9.31425 15.3342 7.45467C15.6287 7.6728 15.9068 7.91275 16.1413 8.18541V8.17996ZM9.52101 1.09066C11.3152 1.09066 12.8584 2.15951 13.5019 3.67007C12.5694 3.08657 11.157 2.72665 9.52101 2.72665C7.88502 2.72665 6.47807 3.08657 5.5401 3.67007C6.18359 2.15951 7.72142 1.09066 9.52101 1.09066ZM2.9007 8.17996C3.14064 7.90729 3.41331 7.66735 3.70779 7.44922C2.99886 9.31425 3.27698 11.0757 3.45148 11.8064C2.9116 12.21 2.50806 12.619 2.21903 12.9571C2.10997 12.5862 2.0009 12.1282 1.93546 11.6264C1.7555 10.274 2.0827 9.11248 2.9007 8.17451V8.17996Z" fill="white"/>
<path d="M8.36491 15.5147C8.50124 15.2474 8.39218 14.9202 8.11951 14.7839C7.28516 14.364 6.2872 14.364 5.45285 14.7839C5.18563 14.9202 5.07657 15.2474 5.20745 15.5147C5.34378 15.7819 5.67098 15.8964 5.93819 15.7601C6.46716 15.4928 7.09974 15.4928 7.63417 15.7601C7.71051 15.7982 7.79777 15.82 7.87957 15.82C8.08134 15.82 8.2722 15.711 8.37036 15.5201L8.36491 15.5147ZM11.3969 15.7546C11.9259 15.4874 12.5585 15.4874 13.0929 15.7546C13.1693 15.7928 13.2565 15.8146 13.3383 15.8146C13.5401 15.8146 13.731 15.7055 13.8291 15.5147C13.9655 15.2474 13.8564 14.9202 13.5837 14.7839C12.7494 14.364 11.7514 14.364 10.9171 14.7839C10.6498 14.9202 10.5408 15.2474 10.6717 15.5147C10.808 15.7819 11.1352 15.8964 11.4024 15.7601L11.3969 15.7546ZM7.08884 16.9652C6.55987 17.2324 5.92728 17.2324 5.39286 16.9652C5.12565 16.8289 4.79845 16.938 4.66212 17.2106C4.52578 17.4833 4.63485 17.805 4.90751 17.9414C5.32742 18.1486 5.7855 18.2522 6.24357 18.2522C6.70165 18.2522 7.15973 18.1486 7.57963 17.9414C7.84685 17.805 7.95591 17.4778 7.82503 17.2106C7.6887 16.9434 7.3615 16.8289 7.09429 16.9652H7.08884ZM8.1795 21.2079C8.5994 21.4151 9.05748 21.5187 9.51556 21.5187C9.97364 21.5187 10.4317 21.4151 10.8516 21.2079C11.1188 21.0716 11.2279 20.7444 11.097 20.4772C10.9607 20.21 10.6335 20.0954 10.3663 20.2318C9.8373 20.499 9.20472 20.499 8.6703 20.2318C8.39763 20.0954 8.07589 20.2045 7.93955 20.4772C7.80322 20.7444 7.91229 21.0716 8.18495 21.2079H8.1795ZM5.69824 13.6333H7.87957C8.1795 13.6333 8.4249 13.3879 8.4249 13.0879C8.4249 12.788 8.1795 12.5426 7.87957 12.5426H5.69824C5.39831 12.5426 5.15291 12.788 5.15291 13.0879C5.15291 13.3879 5.39831 13.6333 5.69824 13.6333ZM13.3329 12.5426H11.1516C10.8516 12.5426 10.6062 12.788 10.6062 13.0879C10.6062 13.3879 10.8516 13.6333 11.1516 13.6333H13.3329C13.6328 13.6333 13.8782 13.3879 13.8782 13.0879C13.8782 12.788 13.6328 12.5426 13.3329 12.5426ZM23.5905 18.8139L19.5442 17.7778C19.4024 17.7396 19.2552 17.7614 19.1297 17.8378C19.0043 17.9141 18.9171 18.0341 18.8789 18.1704L18.4972 19.6755L16.9266 19.272C16.8612 18.623 16.4085 18.0559 15.7432 17.8868L14.2272 17.4997C13.8182 17.396 13.3874 17.456 13.0275 17.6742C12.6621 17.8923 12.4004 18.2413 12.2967 18.6558C12.0841 19.5065 12.5967 20.379 13.4419 20.5971L14.958 20.9843C15.0888 21.017 15.2197 21.0334 15.356 21.0334C15.6396 21.0334 15.9123 20.9571 16.1631 20.8098C16.3649 20.6898 16.534 20.5262 16.6648 20.3354L18.2354 20.7389L17.8537 22.2495C17.7828 22.5385 17.9573 22.8384 18.2463 22.9093L22.2927 23.9455C22.4235 23.9782 22.5544 23.9945 22.6907 23.9945C22.9743 23.9945 23.247 23.9182 23.4978 23.771C23.8632 23.5528 24.125 23.2038 24.2286 22.7894L24.7412 20.7498C24.9539 19.8991 24.4413 19.0266 23.596 18.8085L23.5905 18.8139ZM15.6014 19.8718C15.4869 19.9373 15.356 19.9591 15.2252 19.9264L13.7092 19.5392C13.4419 19.4683 13.2783 19.1956 13.3492 18.923C13.382 18.7921 13.4638 18.683 13.5783 18.6121C13.6546 18.5685 13.7419 18.5412 13.8291 18.5412C13.8728 18.5412 13.9109 18.5412 13.9545 18.5576L15.4706 18.9448C15.7378 19.0157 15.9014 19.2883 15.8305 19.561C15.7978 19.6919 15.716 19.801 15.6014 19.8718ZM23.6778 20.4881L23.1652 22.5276C23.1325 22.6585 23.0507 22.7676 22.9361 22.8384C22.8216 22.9039 22.6907 22.9257 22.5599 22.893L19.037 21.9932L19.8005 18.9775L23.3179 19.8773C23.5851 19.9482 23.7487 20.2209 23.6778 20.4935V20.4881ZM22.0582 11.9973C22.0582 11.6973 21.8128 11.4519 21.5128 11.4519C21.2129 11.4519 20.9675 11.6973 20.9675 11.9973V12.5426C20.9675 12.8425 21.2129 13.0879 21.5128 13.0879C21.8128 13.0879 22.0582 12.8425 22.0582 12.5426V11.9973ZM21.5128 15.8146C21.8128 15.8146 22.0582 15.5692 22.0582 15.2693V14.7239C22.0582 14.424 21.8128 14.1786 21.5128 14.1786C21.2129 14.1786 20.9675 14.424 20.9675 14.7239V15.2693C20.9675 15.5692 21.2129 15.8146 21.5128 15.8146ZM20.4222 13.0879H19.8768C19.5769 13.0879 19.3315 13.3333 19.3315 13.6333C19.3315 13.9332 19.5769 14.1786 19.8768 14.1786H20.4222C20.7221 14.1786 20.9675 13.9332 20.9675 13.6333C20.9675 13.3333 20.7221 13.0879 20.4222 13.0879ZM22.6035 14.1786H23.1488C23.4488 14.1786 23.6942 13.9332 23.6942 13.6333C23.6942 13.3333 23.4488 13.0879 23.1488 13.0879H22.6035C22.3036 13.0879 22.0582 13.3333 22.0582 13.6333C22.0582 13.9332 22.3036 14.1786 22.6035 14.1786ZM22.6035 6.54397C22.9034 6.54397 23.1488 6.29857 23.1488 5.99864V5.45331C23.1488 5.15337 22.9034 4.90798 22.6035 4.90798C22.3036 4.90798 22.0582 5.15337 22.0582 5.45331V5.99864C22.0582 6.29857 22.3036 6.54397 22.6035 6.54397ZM22.6035 9.27062C22.9034 9.27062 23.1488 9.02522 23.1488 8.72529V8.17996C23.1488 7.88003 22.9034 7.63463 22.6035 7.63463C22.3036 7.63463 22.0582 7.88003 22.0582 8.17996V8.72529C22.0582 9.02522 22.3036 9.27062 22.6035 9.27062ZM20.9675 7.63463H21.5128C21.8128 7.63463 22.0582 7.38923 22.0582 7.0893C22.0582 6.78937 21.8128 6.54397 21.5128 6.54397H20.9675C20.6676 6.54397 20.4222 6.78937 20.4222 7.0893C20.4222 7.38923 20.6676 7.63463 20.9675 7.63463ZM23.6942 7.63463H24.2395C24.5394 7.63463 24.7848 7.38923 24.7848 7.0893C24.7848 6.78937 24.5394 6.54397 24.2395 6.54397H23.6942C23.3942 6.54397 23.1488 6.78937 23.1488 7.0893C23.1488 7.38923 23.3942 7.63463 23.6942 7.63463ZM18.2408 1.63599C18.5408 1.63599 18.7862 1.39059 18.7862 1.09066V0.545331C18.7862 0.245399 18.5408 0 18.2408 0C17.9409 0 17.6955 0.245399 17.6955 0.545331V1.09066C17.6955 1.39059 17.9409 1.63599 18.2408 1.63599ZM18.2408 2.72665C17.9409 2.72665 17.6955 2.97205 17.6955 3.27198V3.81731C17.6955 4.11725 17.9409 4.36265 18.2408 4.36265C18.5408 4.36265 18.7862 4.11725 18.7862 3.81731V3.27198C18.7862 2.97205 18.5408 2.72665 18.2408 2.72665ZM16.6049 2.72665H17.1502C17.4501 2.72665 17.6955 2.48125 17.6955 2.18132C17.6955 1.88139 17.4501 1.63599 17.1502 1.63599H16.6049C16.3049 1.63599 16.0595 1.88139 16.0595 2.18132C16.0595 2.48125 16.3049 2.72665 16.6049 2.72665ZM19.3315 2.72665H19.8768C20.1768 2.72665 20.4222 2.48125 20.4222 2.18132C20.4222 1.88139 20.1768 1.63599 19.8768 1.63599H19.3315C19.0316 1.63599 18.7862 1.88139 18.7862 2.18132C18.7862 2.48125 19.0316 2.72665 19.3315 2.72665Z" fill="white"/>
</svg>
