<svg width="445" height="40" viewBox="0 0 445 40" fill="none" xmlns="http://www.w3.org/2000/svg">
<g clip-path="url(#clip0_11_207)">
<path fillRule="evenodd" clip-rule="evenodd" d="M100.704 11.6699C102.242 11.6699 103.78 11.8234 105.395 11.8234C107.01 11.8234 108.625 11.6699 110.316 11.6699V12.7447H109.855C107.471 12.7447 105.472 14.357 103.934 15.9693L98.167 22.1881L107.625 33.858C108.394 34.9328 109.547 35.8541 110.931 35.8541V36.929C109.701 36.929 108.394 36.8522 107.164 36.8522C106.01 36.8522 104.857 36.929 103.703 36.929C103.396 36.238 102.319 34.7793 101.781 34.2418L93.861 24.4146L101.55 15.9693C102.012 15.5086 103.165 14.2802 103.165 13.5125C103.165 12.8215 101.55 12.7447 101.089 12.7447H100.704V11.6699ZM85.7872 35.8541H86.3254C87.6326 35.8541 89.0167 35.7006 89.0167 33.7812V14.8177C89.0167 12.8983 87.6326 12.7447 86.3254 12.7447H85.7872V11.6699C87.2481 11.6699 89.478 11.8234 91.3235 11.8234C93.3227 11.8234 95.6295 11.6699 97.1674 11.6699V12.7447H96.706C95.6295 12.7447 93.7072 12.8215 93.7072 14.8177V33.7812C93.7072 35.7774 95.6295 35.8541 96.706 35.8541H97.1674V36.929C95.6295 36.929 93.3227 36.7754 91.3235 36.7754C89.478 36.7754 87.2481 36.929 85.7872 36.929V35.8541ZM118.698 35.8541H119.236C120.543 35.8541 121.927 35.7006 121.927 33.7812V14.8177C121.927 12.8983 120.543 12.7447 119.236 12.7447H118.698V11.6699C120.159 11.6699 122.312 11.8234 124.157 11.8234C126.002 11.8234 128.155 11.6699 129.924 11.6699V12.7447H129.386C128.079 12.7447 126.618 12.8983 126.618 14.8177V33.7812C126.618 35.6238 128.079 35.8541 129.386 35.8541H129.924V36.929C128.155 36.929 126.002 36.7754 124.157 36.7754C122.388 36.7754 120.235 36.929 118.774 36.929V35.8541H118.698ZM161.297 29.7889L161.373 16.1228C161.373 13.1286 159.297 12.7447 158.221 12.7447H157.375V11.6699C159.067 11.6699 160.758 11.8234 162.527 11.8234C164.065 11.8234 165.526 11.6699 167.064 11.6699V12.7447H166.525C164.987 12.7447 163.296 13.0518 163.296 17.3512V33.7812C163.296 35.0864 163.296 36.3148 163.526 37.4664H162.142L143.227 16.6603V31.5547C143.227 34.7025 143.842 35.7774 146.687 35.7774H147.302V36.8522C145.687 36.8522 144.149 36.6987 142.611 36.6987C140.92 36.6987 139.228 36.8522 137.613 36.8522V35.7774H138.152C140.689 35.7774 141.458 34.0883 141.458 31.1708V15.9693C141.458 13.9731 139.766 12.7447 138.152 12.7447H137.69V11.6699C139.074 11.6699 140.535 11.8234 141.919 11.8234C142.996 11.8234 144.072 11.6699 145.149 11.6699L161.297 29.7889ZM67.871 18.4261C71.7925 20.3455 75.8679 22.4184 75.8679 28.1766C75.8679 34.4722 70.024 37.8503 64.5646 37.8503C62.104 37.8503 59.4896 37.3129 57.2597 36.238L57.1828 36.1612L56.1832 29.0211H57.721L57.7979 29.1747C58.5669 32.5528 61.0275 35.9309 64.949 35.9309C68.563 35.9309 71.1774 33.3973 71.1774 29.9424C71.1774 26.0269 68.1017 24.4146 64.949 22.8023C61.335 20.9597 57.2597 18.81 57.2597 12.8983C57.2597 7.14011 61.1812 3.53167 67.5634 3.53167C69.0244 3.53167 70.5622 3.762 72.0232 3.99232L73.5611 4.22265L74.4069 10.595H72.9459L72.869 10.4415C72.3308 7.21689 70.2547 5.45106 67.0251 5.45106C63.7187 5.45106 61.5657 7.67754 61.5657 11.2092C61.2581 15.1248 64.4877 16.737 67.871 18.4261ZM205.203 27.7927L206.664 28.1766V28.4069C206.664 28.4069 205.587 35.2399 205.433 35.3167C203.434 36.5451 198.129 37.8503 194.899 37.8503C183.826 37.8503 176.675 30.8637 176.675 20.1152C176.675 10.9789 184.826 3.53167 194.745 3.53167C198.436 3.53167 202.05 4.6833 205.972 5.98848L206.125 6.06526L206.664 13.1286H205.049V12.975C204.203 8.1382 200.82 5.52783 195.13 5.52783C190.285 5.52783 182.058 8.59885 182.058 20.0384C182.058 28.8676 188.286 36.0077 195.899 36.0077C200.512 36.0077 204.28 32.8599 205.126 28.0998L205.203 27.7927ZM217.429 35.8541H217.89C219.197 35.8541 220.581 35.7006 220.581 33.7812V14.8177C220.581 12.8983 219.197 12.7447 217.89 12.7447H217.429V11.6699C219.659 11.6699 223.503 11.8234 226.579 11.8234C229.655 11.8234 233.5 11.6699 235.96 11.6699C235.883 13.2054 235.883 15.5854 236.037 17.1977L234.961 17.5048C234.807 15.1248 234.345 13.2821 230.501 13.2821H225.349V22.7255H229.655C231.885 22.7255 232.346 21.4971 232.577 19.5777H233.653C233.576 20.9597 233.576 22.4184 233.576 23.8004C233.576 25.1823 233.576 26.5643 233.653 27.9463L232.577 28.1766C232.346 26.0269 232.269 24.5681 229.732 24.5681H225.349V33.0134C225.349 35.3935 227.502 35.3935 229.809 35.3935C234.192 35.3935 236.114 35.0864 237.267 31.0173L238.267 31.2476C237.806 33.167 237.344 35.0864 237.037 37.0058C234.73 37.0058 230.501 36.8522 227.194 36.8522C223.888 36.8522 219.505 37.0058 217.429 37.0058V35.8541ZM249.647 15.3551C249.647 12.7447 248.263 12.7447 246.802 12.7447H246.341V11.6699C247.956 11.6699 249.878 11.8234 252.185 11.8234C254.415 11.8234 256.26 11.6699 257.721 11.6699V12.7447H257.26C255.799 12.7447 254.338 12.8215 254.338 15.3551V27.8695C254.338 32.476 256.106 35.6238 261.258 35.6238C266.102 35.6238 268.255 32.6296 268.255 27.7159V15.3551C268.255 12.7447 266.871 12.7447 265.641 12.7447H264.872V11.6699C266.333 11.6699 267.871 11.8234 269.332 11.8234C270.793 11.8234 272.177 11.6699 273.561 11.6699V12.7447H272.792C271.793 12.7447 270.408 12.8215 270.408 15.3551V26.8714C270.408 35.0864 266.026 37.3896 260.566 37.3896C253.492 37.3896 249.57 34.856 249.57 28.4069V15.3551H249.647ZM285.48 13.4357C282.711 13.4357 282.635 14.0499 282.096 16.737H281.02C281.174 15.739 281.327 14.7409 281.481 13.666C281.635 12.6679 281.635 11.6699 281.635 10.595H282.481C282.788 11.6699 283.711 11.6699 284.711 11.6699H303.626C304.626 11.6699 305.549 11.5931 305.626 10.5182L306.471 10.6718C306.318 11.6699 306.164 12.5912 306.087 13.5893C306.01 14.5873 306.01 15.5086 306.01 16.5067L304.934 16.8906C304.857 15.5086 304.703 13.4357 302.242 13.4357H296.245V32.7063C296.245 35.4702 297.475 35.7774 299.32 35.7774H300.012V36.8522C298.551 36.8522 296.014 36.6987 294.015 36.6987C291.785 36.6987 289.247 36.8522 287.786 36.8522V35.7774H288.478C290.478 35.7774 291.554 35.6238 291.554 32.7831V13.4357H285.48ZM314.161 35.8541H314.699C316.006 35.8541 317.39 35.7006 317.39 33.7812V14.8177C317.39 12.8983 316.006 12.7447 314.699 12.7447H314.161V11.6699C315.545 11.6699 317.775 11.8234 319.543 11.8234C321.389 11.8234 323.619 11.6699 325.31 11.6699V12.7447H324.772C323.465 12.7447 322.081 12.8983 322.081 14.8177V33.7812C322.081 35.6238 323.465 35.8541 324.772 35.8541H325.31V36.929C323.542 36.929 321.312 36.7754 319.467 36.7754C317.698 36.7754 315.468 36.929 314.084 36.929V35.8541H314.161ZM356.452 19.1171C355.453 15.5854 353.761 12.7447 348.225 12.7447C342.227 12.7447 339.074 17.428 339.074 23.7236C339.074 29.7889 342.15 35.9309 349.147 35.9309C353.069 35.9309 355.683 33.4741 356.606 29.8656L357.606 30.0192C357.144 31.9386 356.837 33.9347 356.683 35.8541C354.53 36.7754 351.685 37.4664 348.302 37.4664C339.997 37.4664 333.922 33.0134 333.922 23.9539C333.922 15.8157 340.535 11.1324 348.071 11.1324C352.377 11.1324 353.761 12.4376 357.221 12.975C357.221 14.9712 357.221 16.9674 357.529 19.0403L356.452 19.1171ZM377.444 15.6622H377.367L373.984 25.8733H380.828L377.444 15.6622ZM372.062 31.7083C371.677 32.9367 371.216 33.858 371.216 34.5489C371.216 35.6238 372.754 35.7774 373.907 35.7774H374.292V36.8522C372.831 36.7754 371.37 36.6987 369.832 36.6987C368.525 36.6987 367.217 36.7754 365.91 36.8522V35.7774H366.141C367.602 35.7774 368.755 34.9328 369.37 33.3973L375.291 16.8906C375.753 15.5086 376.445 13.7428 376.675 12.3608C377.829 11.977 379.29 11.2092 380.059 10.8253C380.135 10.8253 380.212 10.7486 380.366 10.7486C380.443 10.7486 380.52 10.7486 380.597 10.8253C380.674 11.1324 380.828 11.4395 380.904 11.7466L387.594 30.7102C388.056 31.9386 388.517 33.3205 388.978 34.3954C389.44 35.3935 390.209 35.8541 391.439 35.8541H391.669V36.929C390.055 36.8522 388.363 36.7754 386.595 36.7754C384.826 36.7754 382.981 36.8522 381.058 36.929V35.8541H381.443C382.289 35.8541 383.673 35.7006 383.673 34.7793C383.673 34.3186 383.365 33.3205 382.981 32.1689L381.52 27.9463H373.215L372.062 31.7083ZM407.433 33.3973C407.433 34.856 408.432 35.3167 409.663 35.3935C411.124 35.547 412.815 35.547 414.507 35.3167C416.045 35.1631 417.352 34.2418 418.044 33.3973C418.582 32.6296 418.967 31.5547 419.197 30.7869H420.274C419.889 32.8599 419.351 34.856 418.967 36.929C415.737 36.929 412.508 36.7754 409.278 36.7754C406.049 36.7754 402.819 36.929 399.59 36.929V35.8541H400.128C401.435 35.8541 402.896 35.7006 402.896 33.3973V14.8177C402.896 12.8983 401.435 12.7447 400.128 12.7447H399.59V11.6699C401.512 11.6699 403.434 11.8234 405.357 11.8234C407.279 11.8234 409.124 11.6699 410.97 11.6699V12.7447H410.047C408.663 12.7447 407.51 12.8215 407.51 14.6641V33.3973H407.433ZM442.342 16.9674C442.112 14.5873 440.574 12.3608 438.036 12.3608C435.114 12.3608 433.5 14.0499 433.5 16.9674C433.5 22.9559 444.495 21.19 444.495 29.8656C444.495 34.856 440.343 37.4664 435.653 37.4664C433.576 37.4664 431.654 36.6987 429.809 35.8541C429.655 34.0115 429.347 32.1689 429.194 30.3263L430.193 30.096C430.655 33.167 432.423 35.8541 435.883 35.8541C438.344 35.8541 440.42 34.3186 440.42 31.7083C440.42 25.3359 429.655 27.2553 429.655 18.5797C429.655 13.8964 433.038 11.0557 437.806 11.0557C438.805 11.0557 441.958 11.4395 443.034 11.5931C443.034 13.2822 443.188 15.048 443.419 16.8138L442.342 16.9674ZM0.742945 39.309H38.959V0.690979H0.742945V39.309ZM38.7283 0H39.5742V40H0.0509033V0H38.7283ZM14.1224 14.5873C16.9675 12.2073 25.964 6.29559 37.2674 7.90787V37.6967H15.7372C19.5819 36.1612 23.5034 34.2418 26.1947 32.2457C30.0394 29.3282 36.6522 23.1094 34.4223 17.3512C32.0386 11.1324 22.0424 13.8964 17.0444 17.5816C22.1962 14.9712 28.5784 14.6641 29.8087 17.0441C31.039 19.2706 28.8091 22.6488 25.4258 25.4894C22.7345 27.8695 13.6611 33.7044 2.35771 32.0921V2.30326H23.8879C20.0432 3.762 16.1216 5.75816 13.4304 7.75432C9.5088 10.6718 2.97286 16.8906 5.12587 22.6488C7.50957 28.8676 17.5057 26.1036 22.5038 22.4184C17.3519 25.0288 10.9698 25.2591 9.73948 22.9559C8.58608 20.8061 10.7391 17.3512 14.1224 14.5873Z" fill="#79747E"/>
</g>
<defs>
<clipPath id="clip0_11_207">
<rect width="444.444" height="40" fill="white" transform="translate(0.0509033)"/>
</clipPath>
</defs>
</svg>
