<svg width="84" height="26" viewBox="0 0 84 26" fill="none" xmlns="http://www.w3.org/2000/svg">
<path fillRule="evenodd" clip-rule="evenodd" d="M59.8718 0.733687H62.7559V19.1271H59.8718V10.8853H49.7277V19.1271H46.8423V0.733687H49.7277V8.61719H59.8718V0.733687ZM13.8711 25.7634L15.4488 21.9141L17.0248 25.7634H16.5744L16.1693 24.7139H14.7292L14.325 25.7634H13.8711ZM15.4488 22.8452L14.8646 24.3622H16.0335L15.4488 22.8452ZM39.3614 25.7634L40.9386 21.9141L42.5145 25.7634H42.0641L41.6591 24.7139H40.2191L39.815 25.7634H39.3614ZM40.9386 22.8452L40.3545 24.3622H41.5236L40.9386 22.8452ZM58.2255 25.7634V22.1455H58.6773V25.7634H58.2255ZM21.62 19.1271V0.733687H24.5068V19.1271H21.62ZM14.6116 0.727051H17.6005L8.89987 19.1271L0.18182 0.727051H3.17077C3.17077 0.727051 8.95123 13.1579 8.92068 13.1887L14.6116 0.727051ZM37.9859 16.664C39.8523 16.664 41.5623 16.0487 42.8923 15.0269V17.9362C41.4436 18.694 39.77 19.1279 37.9859 19.1279C32.4827 19.1279 28.0214 15.0097 28.0214 9.92905C28.0214 4.84882 32.4827 0.730142 37.9859 0.730142C39.77 0.730142 41.4436 1.16319 42.8923 1.92146V4.83164C41.5623 3.80978 39.8523 3.19455 37.9859 3.19455C33.7491 3.19455 30.6496 6.01719 30.6496 9.92905C30.6496 13.8413 33.7491 16.664 37.9859 16.664ZM21.3027 24.0137V25.4175H21.7441C22.3414 25.4175 22.6014 25.1671 22.6014 24.7253C22.6014 24.2962 22.3236 24.0137 21.6932 24.0137H21.3027ZM21.3027 22.495V23.6625H21.5032C21.7695 23.6625 21.9605 23.6308 22.0782 23.5666C22.2391 23.4763 22.3191 23.3764 22.3191 23.1199C22.3191 22.8703 22.2436 22.6802 22.0923 22.5909C21.9809 22.5266 21.7859 22.495 21.5077 22.495H21.3027ZM20.965 25.7634V22.1398H21.5405C22.3191 22.1398 22.7091 22.4664 22.7091 23.1199C22.7091 23.4341 22.5941 23.67 22.3655 23.8266C22.5691 23.8776 22.7309 23.9899 22.85 24.1628C22.9691 24.3362 22.9905 24.5334 22.9905 24.7543C22.9905 25.0966 22.8686 25.355 22.625 25.528C22.405 25.6846 22.1477 25.7634 21.7768 25.7634H20.965ZM28.6736 22.403C28.2664 22.403 27.9214 22.5495 27.6373 22.8409C27.3532 23.1326 27.2105 23.4847 27.2105 23.8957C27.2105 24.3037 27.3536 24.6544 27.6391 24.948C27.9245 25.2411 28.27 25.388 28.6736 25.388C29.0777 25.388 29.4232 25.2411 29.7082 24.948C29.9941 24.6544 30.1368 24.3037 30.1368 23.8957C30.1368 23.4847 29.9945 23.1326 29.7105 22.8409C29.4264 22.5495 29.0814 22.403 28.6736 22.403ZM28.6736 22.0303C29.1855 22.0303 29.6232 22.2129 29.9873 22.5786C30.3518 22.9434 30.5341 23.3839 30.5341 23.9005C30.5341 24.4172 30.3518 24.856 29.9873 25.2186C29.6232 25.5799 29.1855 25.7612 28.6736 25.7612C28.1623 25.7612 27.7245 25.5799 27.36 25.2186C26.9959 24.856 26.8132 24.4172 26.8132 23.9005C26.8132 23.3839 26.9959 22.9434 27.36 22.5786C27.7245 22.2129 28.1623 22.0303 28.6736 22.0303ZM52.4895 22.403C52.0823 22.403 51.7359 22.5495 51.4527 22.8409C51.1691 23.1326 51.0264 23.4847 51.0264 23.8957C51.0264 24.3037 51.1695 24.6544 51.455 24.948C51.7405 25.2411 52.085 25.388 52.4895 25.388C52.8932 25.388 53.2382 25.2411 53.5246 24.948C53.8096 24.6544 53.9523 24.3037 53.9523 23.8957C53.9523 23.4847 53.8105 23.1326 53.5255 22.8409C53.2423 22.5495 52.8964 22.403 52.4895 22.403ZM52.4895 22.0303C53.0005 22.0303 53.4386 22.2129 53.8023 22.5786C54.1677 22.9434 54.3496 23.3839 54.3496 23.9005C54.3496 24.4172 54.1677 24.856 53.8023 25.2186C53.4386 25.5799 53.0005 25.7612 52.4895 25.7612C51.9777 25.7612 51.5405 25.5799 51.1759 25.2186C50.8114 24.856 50.6291 24.4172 50.6291 23.9005C50.6291 23.3839 50.8114 22.9434 51.1759 22.5786C51.5405 22.2129 51.9777 22.0303 52.4895 22.0303ZM76.1641 22.5926L75.8555 22.7981C75.71 22.5364 75.5109 22.4065 75.2555 22.4065C75.0996 22.4065 74.9641 22.4593 74.8505 22.5641C74.7368 22.6688 74.6791 22.8031 74.6791 22.9654C74.6791 23.1019 74.7405 23.2215 74.8646 23.3236C74.9382 23.3839 75.0573 23.453 75.2236 23.5291L75.4536 23.6339C75.7277 23.7584 75.9227 23.8812 76.0395 24.0022C76.2055 24.1712 76.2886 24.3856 76.2886 24.6474C76.2886 24.9594 76.1827 25.2226 75.9705 25.4377C75.7582 25.653 75.5 25.7603 75.1959 25.7603C74.9191 25.7603 74.6836 25.675 74.4882 25.5051C74.2927 25.3348 74.1677 25.1095 74.1127 24.8291L74.4905 24.7187C74.5159 24.9066 74.5918 25.065 74.7209 25.194C74.8505 25.3233 75.0055 25.3876 75.1868 25.3876C75.3773 25.3876 75.5441 25.3198 75.6868 25.1851C75.8305 25.0496 75.9018 24.8828 75.9018 24.6852C75.9018 24.4969 75.835 24.345 75.7032 24.2262C75.62 24.1501 75.4727 24.0647 75.26 23.9688L75.0486 23.8729C74.8059 23.765 74.6291 23.6537 74.5182 23.5384C74.3677 23.3822 74.2927 23.1863 74.2927 22.9509C74.2927 22.6802 74.3909 22.4566 74.5877 22.282C74.7718 22.1165 74.9977 22.0333 75.265 22.0333C75.6709 22.0333 75.9705 22.2195 76.1641 22.5926ZM68.8123 25.7634V22.1491H70.7282V22.5227H69.2005V23.5965H70.6127V23.9705H69.2005V25.3889H70.7282V25.7634H68.8123ZM9.31087 22.1464V25.3889H10.2734V25.7634H8.92196V22.1464H9.31087ZM46.7145 22.5201V25.763H46.3255V22.5201H45.4827V22.1455H47.5655V22.5201H46.7145ZM34.4155 22.5192V23.8191H34.5355C34.805 23.8191 35.0068 23.7813 35.1423 23.7039C35.3277 23.6018 35.42 23.4244 35.42 23.1718C35.42 22.9029 35.3309 22.7194 35.1518 22.62C35.025 22.5526 34.8182 22.5192 34.5309 22.5192H34.4155ZM34.4155 24.1743V25.7634H34.0264V22.1446H34.5309C35.3832 22.1446 35.81 22.4769 35.81 23.1423C35.81 23.4213 35.7305 23.6519 35.5727 23.8341C35.4159 24.0158 35.2027 24.1184 34.9341 24.1409L36.0455 25.7634H35.5686L34.5127 24.1743H34.4155ZM63.3477 22.5192V23.8191H63.4673C63.7359 23.8191 63.9386 23.7813 64.0741 23.7039C64.26 23.6018 64.3518 23.4244 64.3518 23.1718C64.3518 22.9029 64.2623 22.7194 64.0832 22.62C63.9564 22.5526 63.7505 22.5192 63.4627 22.5192H63.3477ZM63.3477 24.1743V25.7634H62.9586V22.1446H63.4627C64.315 22.1446 64.7409 22.4769 64.7409 23.1423C64.7409 23.4213 64.6618 23.6519 64.5045 23.8341C64.3473 24.0158 64.1346 24.1184 63.8655 24.1409L64.9773 25.7634H64.5005L63.4445 24.1743H63.3477ZM83.6364 0.733642L75.7805 11.2233V19.1271H73.1091V11.2233L65.2541 0.733642H68.3386L74.445 8.92964L80.5514 0.733642H83.6364Z" fill="#79747E"/>
</svg>
