<svg width="26" height="24" viewBox="0 0 26 24" fill="none" xmlns="http://www.w3.org/2000/svg">
<path d="M16.5006 13.5027H14.6973V11.7169C14.6973 11.412 14.4317 11.1506 14.1268 11.1506H12.2364C11.9271 11.1506 11.6658 11.412 11.6658 11.7169V13.5027H9.8625C9.55325 13.5027 9.2919 13.7641 9.2919 14.069V15.9419C9.2919 16.2468 9.5576 16.5082 9.8625 16.5082H11.6658V18.294C11.6658 18.5989 11.9315 18.8603 12.2364 18.8603H14.1268C14.436 18.8603 14.6973 18.5989 14.6973 18.294V16.5082H16.5006C16.8099 16.5082 17.0712 16.2468 17.0712 15.9419V14.069C17.0712 13.7205 16.8055 13.5027 16.5006 13.5027ZM15.9736 15.3321H14.1703C13.8611 15.3321 13.5997 15.5935 13.5997 15.8984V17.6842H12.807V15.8984C12.807 15.5935 12.5413 15.3321 12.2364 15.3321H10.4331V14.5481H12.2364C12.5456 14.5481 12.807 14.2868 12.807 13.9819V12.2396H13.5997V14.0254C13.5997 14.3303 13.8654 14.5917 14.1703 14.5917H15.9736V15.3321Z" fill="white"/>
<path d="M18.4825 6.27222C17.7768 5.8802 17.2934 5.18329 17.1191 4.39927H17.2934C18.0861 4.39927 18.7438 3.74591 18.7438 2.96188V1.43738C18.7438 0.653352 18.0817 0 17.2934 0H9.20043C8.40769 0 7.74998 0.653352 7.74998 1.43738V2.96188C7.74998 3.74591 8.41205 4.39927 9.20043 4.39927H9.28755C9.11332 5.18329 8.62983 5.8802 7.92421 6.27222C6.20806 7.23048 5.11042 8.97278 4.93183 10.8893C4.93183 10.9764 4.88828 22.3013 4.88828 22.3013C4.88828 23.216 5.63746 24 6.60443 24H19.7151C20.6386 24 21.4313 23.2595 21.4313 22.3013V11.412C21.4748 9.27766 20.2857 7.31759 18.4825 6.27222ZM8.89118 2.96188V1.43738C8.89118 1.26315 9.02185 1.08893 9.24399 1.08893H9.46178V1.87295C9.46178 2.17785 9.72748 2.43919 10.0324 2.43919C10.3373 2.43919 10.603 2.17785 10.603 1.87295V1.08893H11.1736V1.87295C11.1736 2.17785 11.4393 2.43919 11.7442 2.43919C12.0491 2.43919 12.3148 2.17785 12.3148 1.87295V1.08893H12.8854V1.87295C12.8854 2.17785 13.1511 2.43919 13.456 2.43919C13.7609 2.43919 14.0266 2.17785 14.0266 1.87295V1.08893H14.5972V1.87295C14.5972 2.17785 14.8629 2.43919 15.1678 2.43919C15.4727 2.43919 15.7384 2.17785 15.7384 1.87295V1.08893H16.309V1.87295C16.309 2.17785 16.5747 2.43919 16.8796 2.43919C17.1845 2.43919 17.4502 2.17785 17.4502 1.87295V1.08893H17.5808C17.7551 1.08893 17.9337 1.2196 17.9337 1.43738V2.96188C17.9337 3.13611 17.803 3.31034 17.5808 3.31034H9.53147C9.00443 3.31034 8.87376 3.17967 8.87376 2.96188H8.89118ZM19.7543 22.9111H6.64363C6.29082 22.9111 6.02947 22.6497 6.02947 22.3013V20.951H20.3249V22.3013C20.3685 22.6497 20.0592 22.9111 19.7543 22.9111ZM20.3729 19.8621H19.2752V14.4174C19.2752 14.1125 19.0095 13.8512 18.7046 13.8512C18.3997 13.8512 18.134 14.1125 18.134 14.4174V19.8621H6.08174C6.1253 9.62613 6.08174 11.1071 6.08174 10.9764C6.21241 9.40833 7.13582 8.01451 8.49916 7.23048C9.55325 6.62068 10.2589 5.57531 10.3895 4.39927H15.9779C16.1522 5.57531 16.8578 6.62068 17.9119 7.23048C19.4059 8.10163 20.3293 9.66967 20.3293 11.412V19.8621H20.3729Z" fill="white"/>
<path d="M7.70207 10.0617C7.39282 10.0617 7.13147 10.323 7.13147 10.6279V14.4174C7.13147 14.7223 7.39717 14.9837 7.70207 14.9837C8.00697 14.9837 8.27267 14.7223 8.27267 14.4174V10.5844C8.27267 10.3231 8.00697 10.0617 7.70207 10.0617Z" fill="white"/>
<path d="M18.7002 13.372C19.0154 13.372 19.2708 13.1185 19.2708 12.8058C19.2708 12.4931 19.0154 12.2396 18.7002 12.2396C18.3851 12.2396 18.1296 12.4931 18.1296 12.8058C18.1296 13.1185 18.3851 13.372 18.7002 13.372Z" fill="white"/>
<path d="M22.5725 15.5063C22.8905 15.5063 23.1431 15.759 23.1431 16.0726C23.1431 16.3862 22.8861 16.6388 22.5725 16.6388C22.2589 16.6388 22.0019 16.3862 22.0019 16.0726C22.0019 15.759 22.2589 15.5063 22.5725 15.5063Z" fill="white"/>
<path d="M23.6701 9.01633C23.9853 9.01633 24.2407 8.76282 24.2407 8.45009C24.2407 8.13736 23.9853 7.88385 23.6701 7.88385C23.355 7.88385 23.0995 8.13736 23.0995 8.45009C23.0995 8.76282 23.355 9.01633 23.6701 9.01633Z" fill="white"/>
<path d="M20.3728 1.87296C20.6908 1.87296 20.9434 2.12558 20.9434 2.43919C20.9434 2.75281 20.6865 3.00543 20.3728 3.00543C20.0592 3.00543 19.8022 2.75281 19.8022 2.43919C19.8022 2.12558 20.0592 1.87296 20.3728 1.87296Z" fill="white"/>
<path d="M6.07737 0.784027C6.39534 0.784027 6.64797 1.03665 6.64797 1.35027C6.64797 1.66388 6.39098 1.9165 6.07737 1.9165C5.76376 1.9165 5.50677 1.66388 5.50677 1.35027C5.50677 1.03665 5.76376 0.784027 6.07737 0.784027Z" fill="white"/>
<path d="M1.67808 9.539C1.99321 9.539 2.24868 9.28549 2.24868 8.97276C2.24868 8.66004 1.99321 8.40652 1.67808 8.40652C1.36295 8.40652 1.10748 8.66004 1.10748 8.97276C1.10748 9.28549 1.36295 9.539 1.67808 9.539Z" fill="white"/>
<path d="M1.67808 16.0726C1.99321 16.0726 2.24868 15.8191 2.24868 15.5064C2.24868 15.1936 1.99321 14.9401 1.67808 14.9401C1.36295 14.9401 1.10748 15.1936 1.10748 15.5064C1.10748 15.8191 1.36295 16.0726 1.67808 16.0726Z" fill="white"/>
<path d="M3.30281 22.5626C3.62077 22.5626 3.87341 22.8152 3.87341 23.1289C3.87341 23.4425 3.61642 23.6951 3.30281 23.6951C2.98919 23.6951 2.73221 23.4425 2.73221 23.1289C2.73221 22.8152 2.98919 22.5626 3.30281 22.5626Z" fill="white"/>
<path d="M7.70207 16.6388C8.0172 16.6388 8.27267 16.3853 8.27267 16.0726C8.27267 15.7599 8.0172 15.5063 7.70207 15.5063C7.38694 15.5063 7.13147 15.7599 7.13147 16.0726C7.13147 16.3853 7.38694 16.6388 7.70207 16.6388Z" fill="white"/>
<path d="M3.30278 3.00543C2.37937 3.00543 1.63019 3.7459 1.63019 4.6606C1.63019 5.5753 2.37937 6.31579 3.30278 6.31579C4.22619 6.31579 4.97538 5.5753 4.97538 4.6606C4.97538 3.7459 4.22619 3.00543 3.30278 3.00543ZM3.30278 5.18329C2.99353 5.18329 2.73218 4.92195 2.73218 4.61705C2.73218 4.31215 2.99788 4.05082 3.30278 4.05082C3.60768 4.05082 3.87338 4.31215 3.87338 4.61705C3.87338 4.92195 3.60768 5.18329 3.30278 5.18329Z" fill="white"/>
<path d="M23.9358 19.3394C23.1867 19.3394 22.5725 19.9492 22.5725 20.6897C22.5725 21.4301 23.1867 22.0399 23.9358 22.0399C24.685 22.0399 25.2992 21.4301 25.2992 20.6897C25.2992 19.9492 24.685 19.3394 23.9358 19.3394ZM23.9358 20.951C23.8052 20.951 23.6701 20.8203 23.6701 20.6897C23.6701 20.559 23.8008 20.4283 23.9358 20.4283C24.0709 20.4283 24.2015 20.5154 24.2015 20.6897C24.2015 20.8203 24.0709 20.951 23.9358 20.951Z" fill="white"/>
<path d="M3.30279 20.1234C3.30279 19.3829 2.68863 18.7731 1.93945 18.7731C1.19027 18.7731 0.576111 19.3829 0.576111 20.1234C0.576111 20.8639 1.19027 21.4737 1.93945 21.4737C2.68863 21.4737 3.30279 20.8639 3.30279 20.1234ZM1.93945 20.4283C1.80878 20.4283 1.67375 20.2976 1.67375 20.167C1.67375 20.0363 1.80442 19.9056 1.93945 19.9056C2.07448 19.9056 2.20515 20.0363 2.20515 20.167C2.20515 20.2976 2.07448 20.4283 1.93945 20.4283Z" fill="white"/>
<path d="M23.9358 4.61705C24.9899 4.61705 25.8698 3.7459 25.8698 2.70053C25.8698 1.65515 24.9899 0.784027 23.9358 0.784027C22.8817 0.784027 22.0019 1.65515 22.0019 2.70053C22.0019 3.7459 22.8817 4.61705 23.9358 4.61705ZM23.9358 1.9165C24.3758 1.9165 24.7721 2.26497 24.7721 2.7441C24.7721 3.22323 24.3758 3.52812 23.9358 3.52812C23.4959 3.52812 23.0995 3.17966 23.0995 2.70053C23.0995 2.2214 23.4523 1.9165 23.9358 1.9165Z" fill="white"/>
<path d="M22.5725 14.9836C22.8817 14.9836 23.1431 14.7223 23.1431 14.4174V11.1506C23.1431 10.8457 22.8774 10.5844 22.5725 10.5844C22.2676 10.5844 22.0019 10.8457 22.0019 11.1506V14.4174C22.0019 14.7223 22.2676 14.9836 22.5725 14.9836Z" fill="white"/>
<path d="M3.87776 11.7169C4.19289 11.7169 4.44836 11.4633 4.44836 11.1506C4.44836 10.8379 4.19289 10.5844 3.87776 10.5844C3.56262 10.5844 3.30716 10.8379 3.30716 11.1506C3.30716 11.4633 3.56262 11.7169 3.87776 11.7169Z" fill="white"/>
<path d="M3.87776 12.2396C3.5685 12.2396 3.30716 12.5009 3.30716 12.8058V14.9837C3.30716 15.2886 3.57286 15.5499 3.87776 15.5499C4.18266 15.5499 4.44836 15.2886 4.44836 14.9837V12.8058C4.4048 12.5009 4.1391 12.2396 3.87776 12.2396Z" fill="white"/>
</svg>
