<svg width="937" height="300" viewBox="0 0 937 300" fill="none" xmlns="http://www.w3.org/2000/svg">
<g clip-path="url(#clip0_2001_5)">
<path d="M188.221 0C187.946 5.51554 187.461 10.9988 186.783 16.3853C185.184 29.1904 182.503 41.6568 178.853 53.6878V53.72C173.394 71.6375 165.755 88.6195 156.226 104.327C151.009 112.939 145.227 121.164 138.945 128.97C138.767 129.196 138.573 129.438 138.379 129.663C138.024 130.131 137.62 130.599 137.233 131.05C137.136 131.163 137.039 131.276 136.942 131.389C136.231 132.195 135.488 132.986 134.729 133.744C132.921 135.582 130.966 137.292 128.931 138.872C128.77 139.001 128.608 139.13 128.431 139.259C127.93 139.646 127.413 140.001 126.896 140.356C126.622 140.549 126.347 140.743 126.073 140.936C125.588 141.259 125.104 141.565 124.619 141.888C124.296 142.098 123.973 142.307 123.634 142.517C123.165 142.807 122.681 143.081 122.213 143.356C121.841 143.565 121.486 143.775 121.114 143.968C120.646 144.226 120.178 144.468 119.693 144.694C119.289 144.888 118.902 145.097 118.498 145.291C118.03 145.517 117.561 145.726 117.093 145.936C116.673 146.129 116.237 146.307 115.817 146.484C115.349 146.678 114.896 146.855 114.428 147.033C113.976 147.21 113.524 147.371 113.071 147.533C112.619 147.694 112.151 147.855 111.682 148.016C111.198 148.178 110.729 148.323 110.245 148.468C109.793 148.597 109.324 148.742 108.872 148.855C108.371 149 107.855 149.113 107.338 149.242C106.886 149.355 106.433 149.452 105.981 149.565C105.448 149.677 104.899 149.774 104.35 149.887C103.914 149.968 103.478 150.048 103.042 150.129C102.46 150.226 101.879 150.29 101.281 150.371C100.861 150.419 100.458 150.484 100.038 150.532C99.3755 150.597 98.7133 150.645 98.035 150.693C97.6796 150.726 97.3405 150.758 96.9852 150.774C95.9677 150.822 94.934 150.855 93.9004 150.855C61.1144 150.855 34.7888 123.309 36.8399 90.1355C38.568 62.2836 60.856 39.3667 88.6998 36.9154C116.463 34.464 140.56 51.8493 148.393 76.4595C148.425 76.5724 148.474 76.6692 148.506 76.7821L149.346 79.7979C149.378 79.8946 149.41 80.0075 149.427 80.1043C150.46 84.3296 151.025 88.7485 151.058 93.2964C158.649 79.814 164.754 65.5575 169.227 50.801L169.486 49.9462V49.914C170.342 47.1078 171.117 44.2856 171.844 41.4472C161.41 25.9811 146.487 13.7727 128.931 6.70896C116.043 1.56435 101.701 -0.854747 86.681 0.274164C40.1023 3.77379 2.76188 41.8342 0.145465 88.4098C-2.4548 135.05 29.0552 174.788 72.0485 185.012C79.074 186.69 86.3903 187.577 93.9165 187.577C95.5639 187.577 97.1951 187.528 98.8102 187.431C99.327 187.399 99.8438 187.367 100.361 187.335C101.475 187.254 102.573 187.173 103.672 187.061C104.253 186.996 104.851 186.932 105.432 186.867C106.498 186.738 107.564 186.577 108.614 186.415C109.163 186.335 109.696 186.254 110.245 186.157C111.731 185.899 113.2 185.609 114.654 185.27C115.252 185.141 115.833 184.98 116.431 184.835C117.335 184.609 118.223 184.383 119.112 184.141C119.871 183.932 120.63 183.706 121.373 183.48C122.067 183.271 122.746 183.061 123.424 182.819C124.248 182.545 125.055 182.271 125.863 181.98C126.396 181.787 126.929 181.577 127.462 181.368C130.659 180.142 133.76 178.755 136.781 177.207C137.007 177.094 137.249 176.965 137.475 176.852C138.509 176.32 139.51 175.755 140.528 175.175C140.721 175.062 140.899 174.949 141.093 174.852C150.541 169.353 158.955 162.289 165.949 153.967C166.466 153.322 167.015 152.661 167.548 152C167.709 151.806 167.871 151.597 168.048 151.387C168.339 151 168.646 150.597 168.985 150.177V150.21C178.708 137.921 187.348 124.777 194.762 110.859C199.009 102.876 202.853 94.6834 206.261 86.2488C215.079 64.4931 221.039 41.2698 223.688 17.0466C224.301 11.4181 224.737 5.75745 224.98 0.0322546H188.188L188.221 0Z" fill="white"/>
<path d="M271.348 187.577H244.005C238.449 187.577 233.572 183.883 232.07 178.529L210.573 101.521C212.333 97.6992 213.997 93.8609 215.564 89.9742C222.04 73.9759 226.966 57.3809 230.261 40.4473L271.348 187.577Z" fill="white"/>
<path d="M216.226 187.577H188.883C183.327 187.577 178.449 183.883 176.947 178.529L172.36 162.095L176.883 156.386C184.893 146.258 192.177 135.55 198.605 124.487L216.226 187.577Z" fill="white"/>
<path d="M138.945 128.986C145.227 121.181 151.009 112.956 156.226 104.344C165.755 88.6356 173.394 71.6536 178.837 53.7362V53.7039C182.503 41.6729 185.184 29.2065 186.783 16.4015C187.445 10.9988 187.946 5.51554 188.22 0.0161285H225.012C224.77 5.74132 224.35 11.402 223.72 17.0304C221.071 41.2536 215.111 64.4769 206.293 86.2327C202.885 94.6672 199.041 102.876 194.794 110.827C187.381 124.777 178.74 137.921 169.017 150.194" fill="white"/>
<path d="M455.273 187.577L438.896 146.049H354.637L338.81 187.577H303.65L374.487 0H419.305L490.142 187.577H455.256H455.273ZM364.021 118.439H391.251C394.917 118.439 398.277 118.568 401.313 118.842C404.349 119.116 407.208 119.423 409.905 119.777C412.409 120.31 414.96 121.164 417.561 122.326C420.145 123.487 422.616 124.97 424.941 126.744C427.267 128.535 429.496 130.728 431.644 133.308C433.792 135.905 435.762 138.808 437.539 142.017L395.676 30.2709H397.291L364.021 118.423V118.439Z" fill="white"/>
<path d="M703.428 187.577L687.052 146.049H602.793L586.966 187.577H551.805L622.659 0H667.477L738.314 187.577H703.428ZM612.193 118.439H639.423C643.089 118.439 646.449 118.568 649.485 118.842C652.521 119.116 655.38 119.423 658.077 119.777C660.58 120.31 663.132 121.164 665.733 122.326C668.317 123.487 670.788 124.97 673.113 126.744C675.439 128.535 677.668 130.728 679.816 133.308C681.964 135.905 683.934 138.808 685.711 142.017L643.848 30.2709H645.463L612.193 118.423V118.439Z" fill="white"/>
<path d="M754.465 13.6437H786.395V45.5274C768.758 45.5274 754.465 31.2547 754.465 13.6437Z" fill="white"/>
<path d="M754.465 187.577H786.395V53.591C768.758 53.591 754.465 67.8637 754.465 85.4747V187.56V187.577Z" fill="white"/>
<path d="M838.513 84.1361C841.194 78.427 844.456 73.5082 848.3 69.3958C852.144 65.2833 856.263 61.9449 860.639 59.3485C865.016 56.7681 869.538 54.8006 874.19 53.462C878.841 52.1234 883.493 51.4461 888.144 51.4461C896.914 51.4461 904.424 53.2846 910.69 56.9455C916.957 60.6064 921.996 65.6058 925.856 71.9439C929.7 78.2819 932.526 85.8295 934.303 94.5866C936.096 103.344 936.984 112.714 936.984 122.729V187.577C919.057 187.577 904.521 173.062 904.521 155.161V122.745C904.521 116.681 903.891 111.23 902.647 106.408C901.388 101.586 899.563 97.5218 897.14 94.2157C894.734 90.9096 891.778 88.3615 888.289 86.5875C884.801 84.7973 880.812 83.9103 876.354 83.9103C872.769 83.9103 868.618 84.6199 863.87 86.0553C859.121 87.4906 854.615 90.1677 850.319 94.0866C846.023 98.0217 842.357 103.457 839.32 110.424C836.284 117.391 834.766 126.406 834.766 137.485V187.593H802.561V53.591H834.766V83.3297C834.766 86.0069 834.588 89.0066 834.233 92.3126C833.878 95.6187 833.425 98.6023 832.893 101.296H833.426C833.958 98.6184 834.637 95.7155 835.444 92.5868C836.252 89.4581 837.269 86.652 838.529 84.1522" fill="white"/>
<path d="M547.913 155.112L535.671 187.528C527.644 187.302 520.699 185.496 514.853 182.077C508.602 178.416 503.547 173.401 499.687 167.063C495.843 160.725 493.033 153.177 491.24 144.42C489.447 135.663 488.559 126.293 488.559 116.294V0H521.022V116.294C521.022 122.358 521.652 127.809 522.912 132.631C524.155 137.453 525.997 141.517 528.403 144.823C530.826 148.129 533.781 150.677 537.27 152.467C540.419 154.08 543.956 154.951 547.913 155.112Z" fill="white"/>
<path d="M545.151 275.035H500.188C500.818 279.905 502.949 283.824 506.616 286.776C510.282 289.743 514.82 291.211 520.263 291.211C526.885 291.211 532.215 288.985 536.268 284.534L541.808 291.001C539.305 293.92 536.188 296.146 532.457 297.678C528.726 299.21 524.559 299.968 519.956 299.968C514.093 299.968 508.909 298.774 504.371 296.371C499.832 293.968 496.328 290.614 493.857 286.292C491.386 281.986 490.142 277.099 490.142 271.68C490.142 266.262 491.337 261.488 493.744 257.166C496.15 252.86 499.461 249.489 503.676 247.086C507.892 244.683 512.656 243.49 517.954 243.49C523.251 243.49 527.967 244.683 532.118 247.086C536.268 249.489 539.499 252.844 541.84 257.166C544.166 261.488 545.345 266.423 545.345 271.987C545.345 272.761 545.281 273.761 545.135 275.019M505.889 256.36C502.643 259.279 500.753 263.117 500.188 267.842H535.735C535.17 263.181 533.281 259.375 530.034 256.408C526.788 253.457 522.766 251.973 517.954 251.973C513.141 251.973 509.119 253.44 505.873 256.36" fill="white"/>
<path d="M588.791 266.375H560.656V275.035H588.791V266.375Z" fill="white"/>
<path d="M623.111 295.146C617.183 291.904 612.532 287.437 609.157 281.728C605.781 276.019 604.085 269.648 604.085 262.617C604.085 255.585 605.781 249.215 609.157 243.506C612.532 237.797 617.183 233.33 623.111 230.088C629.038 226.847 635.692 225.234 643.089 225.234C650.486 225.234 657.027 226.847 662.955 230.088C668.882 233.33 673.517 237.781 676.86 243.458C680.204 249.134 681.883 255.521 681.883 262.617C681.883 269.713 680.204 276.099 676.86 281.776C673.517 287.453 668.882 291.904 662.955 295.146C657.027 298.387 650.406 300 643.089 300C635.773 300 629.038 298.387 623.111 295.146ZM657.56 287.05C661.84 284.615 665.232 281.26 667.703 276.97C670.174 272.696 671.418 267.907 671.418 262.617C671.418 257.327 670.174 252.537 667.703 248.264C665.232 243.99 661.856 240.619 657.56 238.184C653.28 235.749 648.451 234.539 643.073 234.539C637.695 234.539 632.85 235.765 628.489 238.184C624.128 240.619 620.72 243.974 618.249 248.264C615.778 252.553 614.535 257.327 614.535 262.617C614.535 267.907 615.778 272.696 618.249 276.97C620.72 281.26 624.144 284.615 628.489 287.05C632.85 289.485 637.711 290.711 643.073 290.711C648.435 290.711 653.264 289.501 657.56 287.05Z" fill="white"/>
<path d="M745.953 244.038V299.371H736.44V291.017C734.422 293.872 731.757 296.081 728.446 297.645C725.135 299.21 721.533 300 717.625 300C710.228 300 704.414 297.968 700.166 293.888C695.918 289.808 693.786 283.808 693.786 275.874V244.022H703.832V274.712C703.832 280.067 705.124 284.131 707.692 286.872C710.276 289.614 713.959 291.001 718.772 291.001C724.069 291.001 728.252 289.404 731.321 286.195C734.389 283.002 735.924 278.47 735.924 272.616V244.006H745.953V244.038Z" fill="white"/>
<path d="M796.941 296.129C795.471 297.387 793.662 298.339 791.498 299C789.334 299.661 787.105 300 784.812 300C779.24 300 774.911 298.5 771.843 295.517C768.774 292.517 767.24 288.243 767.24 282.679V252.295H757.824V244.054H767.24V231.943H777.286V244.054H793.178V252.295H777.286V282.26C777.286 285.26 778.029 287.55 779.531 289.146C781.033 290.743 783.164 291.549 785.959 291.549C789.027 291.549 791.644 290.678 793.808 288.937L796.941 296.146V296.129Z" fill="white"/>
<path d="M818.89 222.524H808.844V300H818.89V222.524Z" fill="white"/>
<path d="M885.786 275.035H840.822C841.452 279.905 843.584 283.824 847.25 286.776C850.917 289.743 855.455 291.211 860.898 291.211C867.52 291.211 872.849 288.985 876.903 284.534L882.443 291.001C879.94 293.92 876.822 296.146 873.092 297.678C869.361 299.21 865.194 299.968 860.591 299.968C854.728 299.968 849.544 298.774 845.006 296.371C840.467 293.968 836.962 290.614 834.491 286.292C832.02 281.986 830.777 277.099 830.777 271.68C830.777 266.262 831.972 261.488 834.378 257.166C836.785 252.86 840.096 249.489 844.311 247.086C848.526 244.683 853.291 243.49 858.588 243.49C863.886 243.49 868.602 244.683 872.752 247.086C876.903 249.489 880.133 252.844 882.475 257.166C884.801 261.488 885.98 266.423 885.98 271.987C885.98 272.761 885.915 273.761 885.77 275.019M846.524 256.36C843.277 259.279 841.388 263.117 840.822 267.842H876.37C875.805 263.181 873.915 259.375 870.669 256.408C867.423 253.457 863.401 251.973 858.588 251.973C853.775 251.973 849.754 253.44 846.508 256.36" fill="white"/>
<path d="M937 296.129C935.53 297.387 933.721 298.339 931.557 299C929.393 299.661 927.164 300 924.871 300C919.299 300 914.97 298.5 911.902 295.517C908.833 292.517 907.299 288.243 907.299 282.679V252.295H897.883V244.054H907.299V231.943H917.345V244.054H933.237V252.295H917.345V282.26C917.345 285.26 918.088 287.55 919.59 289.146C921.092 290.743 923.223 291.549 926.018 291.549C929.086 291.549 931.703 290.678 933.867 288.937L937 296.146V296.129Z" fill="white"/>
</g>
<defs>
<clipPath id="clip0_2001_5">
<rect width="937" height="300" fill="white"/>
</clipPath>
</defs>
</svg>
