<svg width="231" height="74" viewBox="0 0 231 74" fill="none" xmlns="http://www.w3.org/2000/svg">
<g clip-path="url(#clip0_2100_2152)">
<path d="M46.4021 0C46.3345 1.3605 46.215 2.71304 46.0478 4.04172C45.6536 7.2003 44.9926 10.2753 44.0928 13.243V13.2509C42.747 17.6706 40.8637 21.8595 38.5145 25.7341C37.2284 27.8584 35.803 29.8872 34.2541 31.8126C34.2103 31.8683 34.1625 31.928 34.1147 31.9837C34.0271 32.099 33.9276 32.2144 33.832 32.3258C33.8082 32.3536 33.7843 32.3815 33.7604 32.4093C33.5852 32.6082 33.402 32.8031 33.2149 32.9901C32.7689 33.4436 32.2872 33.8653 31.7855 34.2551C31.7457 34.287 31.7058 34.3188 31.662 34.3506C31.5386 34.4461 31.4112 34.5336 31.2838 34.6211C31.2161 34.6688 31.1484 34.7166 31.0807 34.7643C30.9613 34.8439 30.8418 34.9195 30.7224 34.999C30.6427 35.0507 30.5631 35.1025 30.4795 35.1542C30.364 35.2258 30.2446 35.2934 30.1291 35.361C30.0375 35.4127 29.9499 35.4645 29.8583 35.5122C29.7429 35.5758 29.6274 35.6355 29.508 35.6912C29.4084 35.7389 29.3129 35.7907 29.2133 35.8384C29.0979 35.8941 28.9824 35.9458 28.8669 35.9975C28.7634 36.0453 28.6559 36.089 28.5524 36.1328C28.4369 36.1805 28.3254 36.2243 28.2099 36.268C28.0985 36.3118 27.987 36.3516 27.8755 36.3914C27.764 36.4311 27.6485 36.4709 27.5331 36.5107C27.4136 36.5505 27.2981 36.5863 27.1787 36.6221C27.0672 36.6539 26.9517 36.6897 26.8403 36.7176C26.7168 36.7534 26.5894 36.7812 26.462 36.813C26.3505 36.8409 26.239 36.8647 26.1275 36.8926C25.9961 36.9204 25.8608 36.9443 25.7254 36.9721C25.6179 36.992 25.5104 37.0119 25.4029 37.0318C25.2595 37.0557 25.1162 37.0716 24.9689 37.0915C24.8653 37.1034 24.7658 37.1193 24.6623 37.1313C24.499 37.1472 24.3358 37.1591 24.1686 37.1711C24.081 37.179 23.9973 37.187 23.9097 37.1909C23.6589 37.2029 23.4041 37.2108 23.1493 37.2108C15.0665 37.2108 8.57638 30.4163 9.08205 22.2334C9.50808 15.3633 15.0028 9.71046 21.8672 9.10579C28.7116 8.50113 34.6523 12.7895 36.5834 18.86C36.5913 18.8879 36.6033 18.9117 36.6112 18.9396L36.8183 19.6835C36.8263 19.7073 36.8342 19.7352 36.8382 19.7591C37.093 20.8013 37.2324 21.8913 37.2403 23.0131C39.1117 19.6875 40.6168 16.1708 41.7197 12.5309L41.7834 12.3201V12.3121C41.9944 11.6199 42.1856 10.9238 42.3647 10.2236C39.7926 6.40867 36.1135 3.39727 31.7855 1.65488C28.6081 0.385872 25.0724 -0.210838 21.3694 0.0676271C9.88634 0.930868 0.680743 10.3191 0.0357145 21.8078C-0.605333 33.3123 7.16289 43.1143 17.7621 45.6364C19.4941 46.0501 21.2978 46.2689 23.1532 46.2689C23.5594 46.2689 23.9615 46.257 24.3597 46.2331C24.4871 46.2251 24.6145 46.2172 24.7419 46.2092C25.0167 46.1893 25.2874 46.1694 25.5582 46.1416C25.7015 46.1257 25.8488 46.1098 25.9922 46.0939C26.2549 46.062 26.5177 46.0223 26.7765 45.9825C26.9119 45.9626 27.0433 45.9427 27.1787 45.9188C27.545 45.8552 27.9073 45.7836 28.2657 45.7C28.413 45.6682 28.5563 45.6284 28.7037 45.5926C28.9266 45.5369 29.1456 45.4812 29.3646 45.4216C29.5518 45.3698 29.7389 45.3142 29.9221 45.2585C30.0933 45.2067 30.2605 45.155 30.4277 45.0954C30.6308 45.0277 30.8299 44.9601 31.029 44.8885C31.1604 44.8408 31.2917 44.7891 31.4231 44.7373C32.2115 44.435 32.976 44.0929 33.7206 43.711C33.7763 43.6831 33.836 43.6513 33.8918 43.6235C34.1466 43.4922 34.3935 43.353 34.6443 43.2098C34.6921 43.1819 34.7359 43.1541 34.7837 43.1302C37.1129 41.7737 39.1874 40.0313 40.9114 37.9786C41.0389 37.8195 41.1742 37.6564 41.3056 37.4933C41.3454 37.4455 41.3853 37.3938 41.4291 37.3421C41.5007 37.2466 41.5764 37.1472 41.66 37.0438V37.0517C44.0569 34.0204 46.1871 30.7783 48.0147 27.3452C49.0619 25.3761 50.0095 23.3552 50.8497 21.2747C53.0236 15.9083 54.4929 10.1799 55.1459 4.20482C55.2972 2.81647 55.4047 1.42017 55.4644 0.00795613H46.3942L46.4021 0Z" fill="#6D59A6"/>
<path d="M66.8959 46.2689H60.1549C58.7852 46.2689 57.5828 45.3579 57.2125 44.0372L51.9129 25.0419C52.3469 24.0991 52.757 23.1523 53.1432 22.1936C54.7399 18.2474 55.9543 14.154 56.7665 9.97699L66.8959 46.2689Z" fill="#6D59A6"/>
<path d="M53.3065 46.2689H46.5655C45.1959 46.2689 43.9934 45.3579 43.6231 44.0372L42.4923 39.9835L43.6072 38.5753C45.5821 36.0771 47.3778 33.4356 48.9625 30.7067L53.3065 46.2689Z" fill="#6D59A6"/>
<path d="M34.2542 31.8166C35.8031 29.8912 37.2285 27.8624 38.5146 25.7381C40.8638 21.8635 42.7471 17.6746 44.0889 13.2549V13.247C44.9928 10.2793 45.6537 7.20428 46.0479 4.0457C46.2111 2.71305 46.3346 1.3605 46.4023 0.00398254H55.4725C55.4128 1.4162 55.3092 2.8125 55.1539 4.20084C54.501 10.1759 53.0317 15.9043 50.8577 21.2707C50.0176 23.3513 49.07 25.3761 48.0228 27.3373C46.1952 30.7783 44.065 34.0204 41.6681 37.0477" fill="#6D59A6"/>
<path d="M112.239 46.2689L108.202 36.0254H87.4293L83.5273 46.2689H74.8592L92.3228 0H103.372L120.835 46.2689H112.235H112.239ZM89.7426 29.2149H96.4557C97.3596 29.2149 98.1877 29.2467 98.9363 29.3144C99.6848 29.382 100.39 29.4576 101.055 29.5451C101.672 29.6764 102.301 29.8872 102.942 30.1736C103.579 30.4601 104.188 30.826 104.761 31.2636C105.335 31.7052 105.884 32.2462 106.414 32.8827C106.943 33.5232 107.429 34.2392 107.867 35.0309L97.5467 7.46683H97.9449L89.7426 29.2109V29.2149Z" fill="#010101"/>
<path d="M173.417 46.2689L169.38 36.0254H148.608L144.705 46.2689H136.037L153.505 0H164.554L182.018 46.2689H173.417ZM150.925 29.2149H157.638C158.542 29.2149 159.37 29.2467 160.119 29.3144C160.867 29.382 161.572 29.4576 162.237 29.5451C162.854 29.6764 163.483 29.8872 164.124 30.1736C164.761 30.4601 165.37 30.826 165.944 31.2636C166.517 31.7052 167.066 32.2462 167.596 32.8827C168.126 33.5232 168.611 34.2392 169.049 35.0309L158.729 7.46683H159.127L150.925 29.2109V29.2149Z" fill="#010101"/>
<path d="M185.999 3.36545H193.871V11.2301C189.523 11.2301 185.999 7.7095 185.999 3.36545Z" fill="#010101"/>
<path d="M185.999 46.2689H193.871V13.2191C189.523 13.2191 185.999 16.7397 185.999 21.0838V46.2649V46.2689Z" fill="#010101"/>
<path d="M206.72 20.7536C207.381 19.3453 208.185 18.132 209.133 17.1176C210.08 16.1032 211.096 15.2798 212.175 14.6393C213.254 14.0028 214.369 13.5175 215.515 13.1873C216.662 12.8571 217.809 12.69 218.955 12.69C221.118 12.69 222.969 13.1435 224.514 14.0466C226.059 14.9496 227.301 16.1828 228.253 17.7462C229.2 19.3095 229.897 21.1713 230.335 23.3314C230.777 25.4915 230.996 27.8027 230.996 30.2731V46.2689C226.576 46.2689 222.993 42.6886 222.993 38.273V30.2771C222.993 28.7813 222.838 27.4367 222.531 26.2473C222.22 25.0578 221.771 24.0554 221.173 23.2399C220.58 22.4244 219.851 21.7958 218.991 21.3582C218.131 20.9167 217.148 20.6979 216.049 20.6979C215.165 20.6979 214.142 20.8729 212.971 21.227C211.8 21.581 210.69 22.2414 209.63 23.208C208.571 24.1787 207.667 25.5193 206.919 27.2378C206.17 28.9563 205.796 31.1801 205.796 33.913V46.2729H197.857V13.2191H205.796V20.5547C205.796 21.215 205.752 21.955 205.665 22.7705C205.577 23.586 205.466 24.3219 205.334 24.9862H205.466C205.597 24.3259 205.764 23.6098 205.963 22.8381C206.162 22.0663 206.413 21.3742 206.724 20.7576" fill="#010101"/>
<path d="M135.078 38.261L132.06 46.257C130.081 46.2013 128.369 45.7557 126.927 44.9124C125.386 44.0094 124.14 42.7722 123.189 41.2088C122.241 39.6454 121.548 37.7837 121.106 35.6236C120.664 33.4635 120.445 31.1522 120.445 28.6858V0H128.448V28.6858C128.448 30.1816 128.604 31.5262 128.914 32.7156C129.221 33.9051 129.675 34.9075 130.268 35.723C130.865 36.5385 131.594 37.1671 132.454 37.6086C133.23 38.0065 134.102 38.2213 135.078 38.261Z" fill="#010101"/>
<path d="M134.397 67.8419H123.312C123.467 69.0433 123.993 70.01 124.897 70.738C125.801 71.47 126.919 71.832 128.261 71.832C129.894 71.832 131.208 71.283 132.207 70.185L133.573 71.7802C132.956 72.5003 132.187 73.0492 131.267 73.4272C130.348 73.8051 129.32 73.992 128.186 73.992C126.74 73.992 125.462 73.6977 124.343 73.1049C123.224 72.5122 122.36 71.6848 121.751 70.6186C121.142 69.5565 120.835 68.3511 120.835 67.0145C120.835 65.6779 121.13 64.5004 121.723 63.4343C122.317 62.3721 123.133 61.5407 124.172 60.948C125.211 60.3552 126.386 60.0609 127.692 60.0609C128.998 60.0609 130.16 60.3552 131.184 60.948C132.207 61.5407 133.003 62.3681 133.581 63.4343C134.154 64.5004 134.445 65.7177 134.445 67.0901C134.445 67.281 134.429 67.5277 134.393 67.838M124.718 63.2354C123.917 63.9554 123.451 64.9022 123.312 66.0677H132.076C131.936 64.9181 131.47 63.9793 130.67 63.2473C129.87 62.5193 128.878 62.1533 127.692 62.1533C126.505 62.1533 125.514 62.5153 124.714 63.2354" fill="#010101"/>
<path d="M145.155 65.7057H138.219V67.8419H145.155V65.7057Z" fill="#010101"/>
<path d="M153.616 72.8026C152.155 72.003 151.008 70.9011 150.176 69.4928C149.344 68.0846 148.926 66.5133 148.926 64.7788C148.926 63.0444 149.344 61.4731 150.176 60.0648C151.008 58.6566 152.155 57.5547 153.616 56.7551C155.078 55.9555 156.718 55.5577 158.542 55.5577C160.365 55.5577 161.978 55.9555 163.439 56.7551C164.9 57.5547 166.043 58.6526 166.867 60.0529C167.692 61.4532 168.106 63.0285 168.106 64.7788C168.106 66.5292 167.692 68.1045 166.867 69.5048C166.043 70.9051 164.9 72.003 163.439 72.8026C161.978 73.6022 160.345 74 158.542 74C156.738 74 155.078 73.6022 153.616 72.8026ZM162.109 70.8056C163.164 70.2049 164.001 69.3775 164.61 68.3193C165.219 67.2651 165.526 66.0836 165.526 64.7788C165.526 63.474 165.219 62.2925 164.61 61.2384C164.001 60.1842 163.168 59.3528 162.109 58.7521C161.054 58.1514 159.864 57.853 158.538 57.853C157.212 57.853 156.017 58.1554 154.942 58.7521C153.867 59.3528 153.027 60.1802 152.418 61.2384C151.809 62.2965 151.502 63.474 151.502 64.7788C151.502 66.0836 151.809 67.2651 152.418 68.3193C153.027 69.3775 153.871 70.2049 154.942 70.8056C156.017 71.4063 157.216 71.7086 158.538 71.7086C159.86 71.7086 161.05 71.4103 162.109 70.8056Z" fill="#010101"/>
<path d="M183.901 60.1961V73.8449H181.556V71.7842C181.058 72.4883 180.401 73.0333 179.585 73.4192C178.769 73.8051 177.881 74 176.917 74C175.093 74 173.66 73.4988 172.613 72.4923C171.566 71.4859 171.04 70.006 171.04 68.0488V60.1921H173.517V67.7624C173.517 69.0831 173.835 70.0856 174.468 70.7619C175.105 71.4381 176.013 71.7802 177.2 71.7802C178.506 71.7802 179.537 71.3864 180.294 70.5948C181.05 69.8071 181.428 68.6893 181.428 67.2452V60.1882H183.901V60.1961Z" fill="#010101"/>
<path d="M196.471 73.0453C196.109 73.3555 195.663 73.5903 195.129 73.7534C194.596 73.9165 194.046 74 193.481 74C192.107 74 191.04 73.63 190.284 72.8941C189.527 72.1542 189.149 71.1 189.149 69.7276V62.2329H186.827V60.2001H189.149V57.2126H191.625V60.2001H195.543V62.2329H191.625V69.6241C191.625 70.364 191.809 70.9289 192.179 71.3228C192.549 71.7166 193.075 71.9155 193.764 71.9155C194.52 71.9155 195.165 71.7007 195.699 71.271L196.471 73.0492V73.0453Z" fill="#010101"/>
<path d="M201.882 54.8894H199.406V74H201.882V54.8894Z" fill="#010101"/>
<path d="M218.374 67.8419H207.289C207.444 69.0433 207.97 70.01 208.874 70.738C209.778 71.47 210.897 71.832 212.238 71.832C213.871 71.832 215.185 71.283 216.184 70.185L217.55 71.7802C216.933 72.5003 216.164 73.0492 215.245 73.4272C214.325 73.8051 213.298 73.992 212.163 73.992C210.717 73.992 209.439 73.6977 208.32 73.1049C207.202 72.5122 206.338 71.6848 205.728 70.6186C205.119 69.5565 204.813 68.3511 204.813 67.0145C204.813 65.6779 205.107 64.5004 205.701 63.4343C206.294 62.3721 207.11 61.5407 208.149 60.948C209.188 60.3552 210.363 60.0609 211.669 60.0609C212.975 60.0609 214.138 60.3552 215.161 60.948C216.184 61.5407 216.981 62.3681 217.558 63.4343C218.131 64.5004 218.422 65.7177 218.422 67.0901C218.422 67.281 218.406 67.5277 218.37 67.838M208.695 63.2354C207.894 63.9554 207.429 64.9022 207.289 66.0677H216.053C215.913 64.9181 215.448 63.9793 214.647 63.2473C213.847 62.5193 212.856 62.1533 211.669 62.1533C210.482 62.1533 209.491 62.5153 208.691 63.2354" fill="#010101"/>
<path d="M231 73.0453C230.638 73.3555 230.192 73.5903 229.658 73.7534C229.125 73.9165 228.575 74 228.01 74C226.636 74 225.569 73.63 224.813 72.8941C224.056 72.1542 223.678 71.1 223.678 69.7276V62.2329H221.356V60.2001H223.678V57.2126H226.154V60.2001H230.072V62.2329H226.154V69.6241C226.154 70.364 226.338 70.9289 226.708 71.3228C227.078 71.7166 227.604 71.9155 228.292 71.9155C229.049 71.9155 229.694 71.7007 230.228 71.271L231 73.0492V73.0453Z" fill="#010101"/>
</g>
<defs>
<clipPath id="clip0_2100_2152">
<rect width="231" height="74" fill="white"/>
</clipPath>
</defs>
</svg>
