<svg width="81" height="32" viewBox="0 0 81 32" fill="none" xmlns="http://www.w3.org/2000/svg">
<path fillRule="evenodd" clip-rule="evenodd" d="M40.127 26.188C37.7711 28.1493 34.715 29.3333 31.3755 29.3333C23.9242 29.3333 17.8837 23.4384 17.8837 16.1667C17.8837 8.89492 23.9242 3 31.3755 3C34.715 3 37.7711 4.18403 40.127 6.14537C42.483 4.18403 45.539 3 48.8785 3C56.3298 3 62.3703 8.89492 62.3703 16.1667C62.3703 23.4384 56.3298 29.3333 48.8785 29.3333C45.539 29.3333 42.483 28.1493 40.127 26.188Z" fill="#ED0006"/>
<path fillRule="evenodd" clip-rule="evenodd" d="M40.1269 26.188C43.0278 23.773 44.8673 20.1795 44.8673 16.1667C44.8673 12.1539 43.0278 8.56033 40.1269 6.14532C42.4828 4.18401 45.5389 3 48.8783 3C56.3296 3 62.3701 8.89492 62.3701 16.1667C62.3701 23.4384 56.3296 29.3333 48.8783 29.3333C45.5389 29.3333 42.4828 28.1493 40.1269 26.188Z" fill="#F9A000"/>
<path fillRule="evenodd" clip-rule="evenodd" d="M40.127 26.1881C43.0279 23.7731 44.8673 20.1796 44.8673 16.1668C44.8673 12.154 43.0279 8.56052 40.127 6.14551C37.2261 8.56052 35.3867 12.154 35.3867 16.1668C35.3867 20.1796 37.2261 23.7731 40.127 26.1881Z" fill="#FF5E00"/>
</svg>
