<svg width="81" height="32" viewBox="0 0 81 32" fill="none" xmlns="http://www.w3.org/2000/svg">
<path fillRule="evenodd" clip-rule="evenodd" d="M24.1276 25.8681H18.5181L14.3116 9.55217C14.1119 8.80163 13.688 8.13812 13.0644 7.8254C11.5082 7.03951 9.79333 6.41406 7.92258 6.09862V5.47046H16.9591C18.2063 5.47046 19.1416 6.41406 19.2975 7.50995L21.4801 19.2792L27.0869 5.47046H32.5405L24.1276 25.8681ZM35.6584 25.8681H30.3607L34.723 5.47046H40.0208L35.6584 25.8681ZM46.8748 11.1212C47.0307 10.0226 47.9661 9.39443 49.0573 9.39443C50.7722 9.23671 52.6402 9.55215 54.1992 10.3353L55.1346 5.94361C53.5756 5.31544 51.8607 5 50.3045 5C45.1627 5 41.4212 7.82538 41.4212 11.7467C41.4212 14.7298 44.0714 16.2961 45.9421 17.2397C47.9661 18.1806 48.7455 18.8087 48.5896 19.7496C48.5896 21.161 47.0307 21.7891 45.4745 21.7891C43.6037 21.7891 41.7329 21.3187 40.0208 20.5328L39.0854 24.9272C40.9562 25.7104 42.9801 26.0258 44.8509 26.0258C50.6163 26.1808 54.1992 23.3582 54.1992 19.1215C54.1992 13.7861 46.8748 13.4734 46.8748 11.1212ZM72.7399 25.8681L68.5334 5.47046H64.0151C63.0798 5.47046 62.1444 6.09862 61.8326 7.03951L54.0432 25.8681H59.4969L60.5854 22.8877H67.2862L67.9098 25.8681H72.7399ZM64.7946 10.9636L66.3509 18.6511H61.9885L64.7946 10.9636Z" fill="#172B85"/>
</svg>
