<svg width="139" height="40" viewBox="0 0 139 40" fill="none" xmlns="http://www.w3.org/2000/svg">
<path d="M64.0846 24.6818H78.6465V4.54541H64.0846V24.6818Z" fill="#E5E5EA"/>
<path d="M83.4402 15.9093H80.0937V19.7729H83.4402C84.616 19.7729 85.3396 18.9548 85.3396 17.8184C85.3396 16.7275 84.4803 15.9093 83.4402 15.9093ZM83.5306 20.9093H80.0937V24.9093H78.6917V14.7729H83.5306C85.5205 14.7729 86.7415 16.2729 86.7415 17.8639C86.7415 19.4548 85.5205 20.9093 83.5306 20.9093Z" fill="#79747E"/>
<path d="M91.3543 15.8181C89.2288 15.8181 87.8269 17.5454 87.8269 19.8635C87.8269 22.1817 89.2288 23.8635 91.3543 23.8635C93.4798 23.8635 94.8817 22.1363 94.8817 19.8635C94.8817 17.5454 93.4798 15.8181 91.3543 15.8181ZM91.3543 25.0908C88.5052 25.0908 86.4249 22.7272 86.4249 19.8635C86.4249 16.9999 88.5052 14.5908 91.3543 14.5908C94.2033 14.5908 96.2836 16.9545 96.2836 19.8635C96.2836 22.7272 94.2486 25.0908 91.3543 25.0908Z" fill="#79747E"/>
<path d="M100.263 25.0908C98.9518 25.0908 97.5046 24.8181 96.1479 24.2726L96.4645 23.1817C97.6855 23.5908 99.0874 23.909 100.263 23.909C101.891 23.909 102.841 23.2726 102.841 22.3635C102.841 21.5454 102.344 21.1363 100.037 20.2726C97.369 19.2726 96.5097 18.5908 96.5097 16.9999C96.5097 15.3181 97.8664 14.5908 100.354 14.5908C101.394 14.5908 102.931 14.7726 103.926 15.0908L103.655 16.1817C102.615 15.909 101.439 15.7726 100.399 15.7726C98.59 15.7726 97.9116 16.0454 97.9116 16.9999C97.9116 17.9999 98.5448 18.3181 100.987 19.2272C103.61 20.2726 104.243 20.8635 104.243 22.2726C104.198 23.9545 102.66 25.0908 100.263 25.0908Z" fill="#79747E"/>
<path d="M108.268 16.2725L106.368 21.2725H110.122L108.268 16.2725ZM111.569 24.9089L110.574 22.318H106.052L105.012 24.9089H103.61L107.68 14.7271H108.856L112.926 24.9089H111.569Z" fill="#79747E"/>
<path d="M115.865 20.818V24.9089H114.463V20.818L110.574 14.7271H112.021L115.187 19.5452L118.307 14.7271H119.754L115.865 20.818Z" fill="#79747E"/>
<path d="M13.7511 24.9093V14.7729H15.153V23.7275H20.3085V24.9548H13.7511V24.9093Z" fill="#79747E"/>
<path d="M24.6951 16.2725L22.7958 21.2725H26.5493L24.6951 16.2725ZM27.9512 24.9089L26.9563 22.318H22.434L21.3938 24.9089H19.9919L24.062 14.7271H25.2378L29.3079 24.9089H27.9512Z" fill="#79747E"/>
<path d="M36.3628 15.9093H33.0162V19.6366H36.3628C37.5386 19.6366 38.2621 18.8639 38.2621 17.7729C38.3074 16.6366 37.4029 15.9093 36.3628 15.9093ZM39.1214 24.9093L36.0914 20.773H33.0615V24.9093H31.6595V14.7729H36.5889C38.5335 14.7729 39.7545 16.2275 39.7545 17.8184C39.7545 19.0911 38.9857 20.2275 37.629 20.6366L40.7946 24.9548H39.1214V24.9093Z" fill="#79747E"/>
<path d="M44.9552 15.8181C42.8297 15.8181 41.4278 17.5454 41.4278 19.8635C41.4278 22.1817 42.8297 23.8635 44.9552 23.8635C47.0807 23.8635 48.4826 22.1363 48.4826 19.8635C48.4374 17.5454 47.0807 15.8181 44.9552 15.8181ZM44.9552 25.0908C42.1061 25.0908 40.0258 22.7272 40.0258 19.8635C40.0258 16.9999 42.1061 14.5908 44.9552 14.5908C47.8042 14.5908 49.8845 16.9545 49.8845 19.8635C49.8393 22.7272 47.8042 25.0908 44.9552 25.0908Z" fill="#79747E"/>
<path d="M57.7534 16.1362C57.1202 15.9544 56.261 15.8635 55.4922 15.8635C52.8693 15.8635 51.196 17.4999 51.196 19.8635C51.196 22.2271 52.8693 23.909 55.4922 23.909C56.1706 23.909 56.8941 23.818 57.7534 23.5908L58.0247 24.7271C57.2107 24.9544 56.3062 25.1362 55.4018 25.1362C52.1457 25.1362 49.7941 22.7726 49.7941 19.8635C49.7941 16.9544 52.1457 14.6362 55.4018 14.6362C56.3514 14.6362 57.2107 14.7271 58.0247 14.9999L57.7534 16.1362Z" fill="#79747E"/>
<path d="M65.577 24.9093V20.3184H60.2859V24.9093H58.8839V14.7729H60.2859V19.0911H65.577V14.7729H66.9789V24.9548H65.577V24.9093Z" fill="#79747E"/>
<path d="M68.2452 24.9093V14.7729H75.2548V16.0002H69.6471V19.0911H74.893V20.3184H69.6471V23.7729H75.2548V25.0002H68.2452V24.9093Z" fill="#79747E"/>
<path d="M31.5239 30.7271V26.7271H31.8856V30.4089H33.9659V30.7271H31.5239Z" fill="#79747E"/>
<path d="M35.6844 27.1816L34.8252 29.318H36.5436L35.6844 27.1816ZM37.1315 30.7271L36.6793 29.6361H34.7347L34.2825 30.7271H33.9207L35.5487 26.7271H35.8201L37.4481 30.7271H37.1315Z" fill="#79747E"/>
<path d="M39.3475 28.818H37.9456V30.4089H39.3475C39.8902 30.4089 40.2067 30.1361 40.2067 29.6361C40.2519 29.1361 39.9806 28.818 39.3475 28.818ZM39.2118 27.0452H37.9456V28.4998H39.1666C39.664 28.4998 40.1163 28.2725 40.1163 27.7725C40.1163 27.2725 39.7545 27.0452 39.2118 27.0452ZM39.3927 30.7271H37.5838V26.7271H39.1666C40.0258 26.7271 40.4328 27.1361 40.4328 27.7271C40.4328 28.0907 40.2067 28.4543 39.7997 28.5907C40.2972 28.7725 40.5233 29.1361 40.5233 29.5907C40.6137 30.1816 40.1615 30.7271 39.3927 30.7271Z" fill="#79747E"/>
<path d="M42.5583 26.9544C41.6539 26.9544 41.066 27.6816 41.066 28.6816C41.066 29.6816 41.6991 30.4089 42.5583 30.4089C43.4628 30.4089 44.0507 29.6816 44.0507 28.6816C44.0507 27.7271 43.4176 26.9544 42.5583 26.9544ZM42.5583 30.7725C41.473 30.7725 40.7042 29.818 40.7042 28.7271C40.7042 27.5907 41.473 26.6816 42.5583 26.6816C43.6437 26.6816 44.4125 27.6362 44.4125 28.7271C44.4125 29.818 43.6437 30.7725 42.5583 30.7725Z" fill="#79747E"/>
<path d="M46.5832 27.0452H45.1361V28.6816H46.5832C47.1259 28.6816 47.4425 28.3634 47.4425 27.8634C47.3972 27.3634 47.0354 27.0452 46.5832 27.0452ZM47.8042 30.7271L46.538 28.9998H45.1361V30.7271H44.7743V26.7271H46.5832C47.352 26.7271 47.8042 27.2725 47.8042 27.8634C47.8042 28.3634 47.4877 28.818 46.945 28.9543L48.2565 30.7271H47.8042Z" fill="#79747E"/>
<path d="M49.8393 27.1816L48.98 29.318H50.6985L49.8393 27.1816ZM51.2864 30.7271L50.8342 29.6361H48.8896L48.4374 30.7271H48.0756L49.7036 26.7271H49.975L51.603 30.7271H51.2864Z" fill="#79747E"/>
<path d="M52.7336 27.0452V30.7271H52.3718V27.0452H51.0151V26.7271H54.0903V27.0452H52.7336Z" fill="#79747E"/>
<path d="M55.7183 26.9544C54.8139 26.9544 54.226 27.6816 54.226 28.6816C54.226 29.6816 54.8591 30.4089 55.7183 30.4089C56.6228 30.4089 57.2107 29.6816 57.2107 28.6816C57.2559 27.7271 56.6228 26.9544 55.7183 26.9544ZM55.7183 30.7725C54.5877 30.7725 53.8642 29.818 53.8642 28.7271C53.8642 27.5907 54.633 26.6816 55.7183 26.6816C56.8037 26.6816 57.5725 27.6362 57.5725 28.7271C57.6177 29.818 56.8489 30.7725 55.7183 30.7725Z" fill="#79747E"/>
<path d="M58.0247 30.7271H58.3865V26.7271H58.0247V30.7271Z" fill="#79747E"/>
<path d="M60.8285 27.0452H59.4266V28.6816H60.8738C61.4164 28.6816 61.733 28.3634 61.733 27.8634C61.6878 27.3634 61.2808 27.0452 60.8285 27.0452ZM62.0496 30.7271L60.7833 28.9998H59.4266V30.7271H59.0648V26.7271H60.8738C61.6426 26.7271 62.0948 27.2725 62.0948 27.8634C62.0948 28.3634 61.7782 28.818 61.2356 28.9543L62.547 30.7271H62.0496Z" fill="#79747E"/>
<path d="M62.6827 30.7271V26.7271H65.3057V27.0452H63.0445V28.4998H65.17V28.818H63.0445V30.4089H65.3509V30.7271H62.6827Z" fill="#79747E"/>
<path d="M67.3407 27.0452H66.8432V30.4089H67.3407C68.2904 30.4089 69.2401 29.818 69.2401 28.7271C69.2401 27.6361 68.2904 27.0452 67.3407 27.0452ZM67.2955 30.7271H66.5267V26.7271H67.2955C68.6522 26.7271 69.6471 27.5452 69.6471 28.7271C69.6471 29.9089 68.6522 30.6816 67.2955 30.7271Z" fill="#79747E"/>
<path d="M69.9184 30.7271V26.7271H72.5414V27.0452H70.2802V28.4998H72.4057V28.818H70.2802V30.4089H72.5414V30.7271H69.9184Z" fill="#79747E"/>
<path d="M74.8025 27.0452H73.3554V28.6816H74.8025C75.3452 28.6816 75.6618 28.3634 75.6618 27.8634C75.6618 27.3634 75.2548 27.0452 74.8025 27.0452ZM76.0236 30.7271L74.7573 28.9998H73.3554V30.7271H72.9936V26.7271H74.8025C75.5713 26.7271 76.0236 27.2725 76.0236 27.8634C76.0236 28.3634 75.707 28.818 75.1643 28.9543L76.4758 30.7271H76.0236Z" fill="#79747E"/>
<path d="M79.958 30.7271V27.4089L78.5561 30.2271H78.33L76.9733 27.4089V30.7271H76.6115V26.7271H76.9733L78.4656 29.7271L79.958 26.7271H80.3198V30.7271H79.958Z" fill="#79747E"/>
<path d="M82.2191 27.1816L81.3599 29.318H83.0784L82.2191 27.1816ZM83.6211 30.7271L83.1688 29.6361H81.2242L80.772 30.7271H80.4102L82.0383 26.7271H82.3096L83.9376 30.7271H83.6211Z" fill="#79747E"/>
<path d="M85.1134 27.0452V30.7271H84.7517V27.0452H83.395V26.7271H86.4701V27.0452H85.1134Z" fill="#79747E"/>
<path d="M88.0982 26.9544C87.1937 26.9544 86.6058 27.6816 86.6058 28.6816C86.6058 29.6816 87.2389 30.4089 88.0982 30.4089C88.9574 30.4089 89.5905 29.6816 89.5905 28.6816C89.6358 27.7271 89.0026 26.9544 88.0982 26.9544ZM88.0982 30.7725C87.0128 30.7725 86.244 29.818 86.244 28.7271C86.244 27.5907 87.0128 26.6816 88.0982 26.6816C89.2288 26.6816 89.9523 27.6362 89.9523 28.7271C89.9523 29.818 89.2288 30.7725 88.0982 30.7725Z" fill="#79747E"/>
<path d="M90.3593 30.7271V26.7271H90.7211V30.4089H92.8014V30.7271H90.3593Z" fill="#79747E"/>
<path d="M94.4747 26.9544C93.5702 26.9544 92.9823 27.6816 92.9823 28.6816C92.9823 29.6816 93.6154 30.4089 94.4747 30.4089C95.3791 30.4089 95.967 29.6816 95.967 28.6816C96.0123 27.7271 95.3791 26.9544 94.4747 26.9544ZM94.4747 30.7725C93.3441 30.7725 92.6205 29.818 92.6205 28.7271C92.6205 27.5907 93.3893 26.6816 94.4747 26.6816C95.6053 26.6816 96.3288 27.6362 96.3288 28.7271C96.3288 29.818 95.6053 30.7725 94.4747 30.7725Z" fill="#79747E"/>
<path d="M98.5448 30.7725C97.2785 30.7725 96.3741 29.8635 96.3741 28.7271C96.3741 27.5453 97.1881 26.6816 98.5448 26.6816C98.8613 26.6816 99.2683 26.7271 99.5849 26.818L99.5397 27.0907C99.1779 26.9998 98.8613 26.9998 98.5448 26.9998C97.5046 26.9998 96.7358 27.6362 96.7358 28.7271C96.7358 29.7725 97.5046 30.4544 98.5448 30.4544C98.7709 30.4544 99.0874 30.4089 99.404 30.3635V28.9544H99.7206V30.5907C99.3588 30.7271 98.8613 30.7725 98.5448 30.7725Z" fill="#79747E"/>
<path d="M100.263 30.7271H100.625V26.7271H100.263V30.7271Z" fill="#79747E"/>
<path d="M102.886 26.9544C101.982 26.9544 101.394 27.6816 101.394 28.6816C101.394 29.6816 102.027 30.4089 102.886 30.4089C103.791 30.4089 104.379 29.6362 104.379 28.6816C104.379 27.7271 103.791 26.9544 102.886 26.9544ZM103.067 30.7725V31.818H102.705V30.7725C101.71 30.6816 101.032 29.7725 101.032 28.7271C101.032 27.6362 101.801 26.6816 102.886 26.6816C103.972 26.6816 104.74 27.6362 104.74 28.7271C104.74 29.7725 104.062 30.6816 103.067 30.7725Z" fill="#79747E"/>
<path d="M106.64 30.7725C105.645 30.7725 105.057 30.0452 105.057 29.318V26.7271H105.419V29.318C105.419 30.0452 105.916 30.4543 106.64 30.4543C107.363 30.4543 107.861 29.9998 107.861 29.318V26.7271H108.223V29.318C108.223 30.0907 107.635 30.7725 106.64 30.7725Z" fill="#79747E"/>
<path d="M108.765 30.7271V26.7271H111.388V27.0452H109.127V28.4998H111.253V28.818H109.127V30.4089H111.388V30.7271H108.765Z" fill="#79747E"/>
</svg>
