<svg width="48" height="33" viewBox="0 0 48 33" fill="none" xmlns="http://www.w3.org/2000/svg">
<path d="M32.7882 0C32.7403 0.956026 32.6559 1.90646 32.5378 2.84012C32.2592 5.05967 31.7922 7.22051 31.1564 9.30588V9.31147C30.2055 12.4172 28.8747 15.3607 27.2148 18.0834C26.3061 19.5762 25.2989 21.0018 24.2045 22.3548C24.1735 22.3939 24.1398 22.4359 24.106 22.475C24.0441 22.5561 23.9738 22.6371 23.9063 22.7154C23.8894 22.735 23.8725 22.7545 23.8556 22.7741C23.7318 22.9139 23.6024 23.0509 23.4702 23.1822C23.1551 23.5009 22.8147 23.7972 22.4602 24.0712C22.432 24.0935 22.4039 24.1159 22.373 24.1383C22.2857 24.2054 22.1957 24.2669 22.1057 24.3284C22.0579 24.3619 22.01 24.3954 21.9622 24.429C21.8778 24.4849 21.7934 24.538 21.709 24.5939C21.6527 24.6303 21.5965 24.6666 21.5374 24.7029C21.4558 24.7533 21.3714 24.8008 21.2898 24.8483C21.2251 24.8846 21.1632 24.921 21.0985 24.9545C21.0169 24.9992 20.9353 25.0412 20.8509 25.0803C20.7806 25.1139 20.7131 25.1502 20.6427 25.1837C20.5611 25.2229 20.4795 25.2592 20.398 25.2956C20.3248 25.3291 20.2488 25.3599 20.1757 25.3906C20.0941 25.4241 20.0153 25.4549 19.9337 25.4856C19.855 25.5164 19.7762 25.5444 19.6974 25.5723C19.6186 25.6003 19.5371 25.6282 19.4555 25.6562C19.3711 25.6841 19.2895 25.7093 19.2051 25.7344C19.1263 25.7568 19.0447 25.782 18.9659 25.8015C18.8787 25.8267 18.7887 25.8463 18.6987 25.8686C18.6199 25.8882 18.5411 25.905 18.4623 25.9245C18.3695 25.9441 18.2738 25.9609 18.1782 25.9804C18.1022 25.9944 18.0263 26.0084 17.9503 26.0224C17.849 26.0391 17.7477 26.0503 17.6436 26.0643C17.5705 26.0727 17.5001 26.0839 17.427 26.0922C17.3117 26.1034 17.1963 26.1118 17.0781 26.1202C17.0162 26.1258 16.9572 26.1314 16.8953 26.1342C16.718 26.1426 16.538 26.1482 16.3579 26.1482C10.6467 26.1482 6.06086 21.3736 6.41817 15.6235C6.7192 10.7958 10.6017 6.82357 15.452 6.39867C20.2882 5.97377 24.4858 8.98721 25.8503 13.253C25.8559 13.2726 25.8644 13.2893 25.87 13.3089L26.0163 13.8316C26.0219 13.8484 26.0276 13.868 26.0304 13.8847C26.2104 14.6171 26.3089 15.3831 26.3145 16.1714C27.6368 13.8344 28.7003 11.3633 29.4796 8.8055L29.5246 8.65735V8.65176C29.6737 8.16536 29.8088 7.67616 29.9354 7.18417C28.1179 4.50339 25.5183 2.38727 22.4602 1.16289C20.2151 0.271154 17.7168 -0.148156 15.1003 0.0475218C6.98647 0.654123 0.48189 7.25126 0.0261196 15.3244C-0.426838 23.4087 5.06211 30.2965 12.5514 32.0688C13.7752 32.3595 15.0497 32.5133 16.3607 32.5133C16.6477 32.5133 16.9318 32.5049 17.2132 32.4881C17.3032 32.4825 17.3932 32.4769 17.4833 32.4713C17.6774 32.4574 17.8687 32.4434 18.06 32.4238C18.1613 32.4126 18.2654 32.4015 18.3667 32.3903C18.5524 32.3679 18.738 32.34 18.9209 32.312C19.0166 32.298 19.1094 32.2841 19.2051 32.2673C19.4639 32.2226 19.7199 32.1722 19.9731 32.1135C20.0772 32.0912 20.1785 32.0632 20.2826 32.0381C20.4402 31.9989 20.5949 31.9598 20.7496 31.9179C20.8819 31.8815 21.0141 31.8424 21.1435 31.8032C21.2645 31.7669 21.3826 31.7306 21.5008 31.6886C21.6443 31.6411 21.785 31.5936 21.9256 31.5433C22.0185 31.5097 22.1113 31.4734 22.2042 31.437C22.7612 31.2246 23.3014 30.9842 23.8275 30.7158C23.8669 30.6963 23.9091 30.6739 23.9485 30.6543C24.1285 30.5621 24.303 30.4643 24.4802 30.3636C24.514 30.344 24.5449 30.3245 24.5787 30.3077C26.2245 29.3545 27.6903 28.1301 28.9085 26.6877C28.9985 26.5759 29.0942 26.4612 29.187 26.3466C29.2151 26.3131 29.2433 26.2767 29.2742 26.2404C29.3249 26.1733 29.3783 26.1034 29.4374 26.0307V26.0363C31.1311 23.9062 32.6362 21.628 33.9276 19.2156C34.6675 17.8318 35.3371 16.4118 35.9307 14.9498C37.4669 11.1788 38.505 7.15342 38.9664 2.95474C39.0733 1.97914 39.1493 0.997957 39.1915 0.0055908H32.7825L32.7882 0Z" fill="#6D59A6"/>
<path d="M47.2689 32.5132H42.5058C41.538 32.5132 40.6883 31.873 40.4267 30.9449L36.6821 17.5969C36.9887 16.9344 37.2785 16.2691 37.5514 15.5954C38.6796 12.8224 39.5377 9.94591 40.1116 7.01074L47.2689 32.5132Z" fill="#6D59A6"/>
<path d="M37.6668 32.5132H32.9037C31.9359 32.5132 31.0863 31.8731 30.8246 30.945L30.0256 28.0965L30.8134 27.1069C32.2088 25.3514 33.4777 23.4953 34.5974 21.5776L37.6668 32.5132Z" fill="#6D59A6"/>
<path d="M24.2046 22.3577C25.299 21.0048 26.3062 19.5791 27.2149 18.0864C28.8748 15.3636 30.2056 12.4201 31.1537 9.3144V9.30881C31.7923 7.22344 32.2594 5.0626 32.5379 2.84305C32.6532 1.9066 32.7404 0.956161 32.7883 0.00292969H39.1972C39.155 0.995296 39.0819 1.97648 38.9721 2.95207C38.5107 7.15076 37.4726 11.1761 35.9365 14.9471C35.3428 16.4091 34.6733 17.832 33.9333 19.2101C32.642 21.6281 31.1368 23.9064 29.4431 26.0337" fill="#6D59A6"/>
</svg>
