<svg width="26" height="24" viewBox="0 0 26 24" fill="none" xmlns="http://www.w3.org/2000/svg">
<path d="M8.0071 4.88135C8.27036 4.8382 8.44299 4.66558 8.48615 4.40664C8.87888 1.68773 6.82891 -0.34066 4.08411 0.0477545C3.82085 0.0909117 3.64823 0.263543 3.60507 0.522487C3.21234 3.24139 5.2623 5.26977 8.0071 4.88135ZM4.65379 1.08353C6.31102 1.04037 7.4849 2.20561 7.44174 3.84558C5.74134 3.88874 4.61063 2.7235 4.65379 1.08353Z" fill="white"/>
<path d="M18.2052 14.8507C18.2052 14.5486 17.9419 14.2896 17.6398 14.2896C17.3377 14.2896 17.1176 14.5486 17.1176 14.8507V15.9296C17.1176 16.2317 17.3809 16.4907 17.683 16.4907C17.9851 16.4907 18.2483 16.2317 18.2483 15.9296V14.8507H18.2052Z" fill="white"/>
<path d="M19.8624 17.0085H18.7748C18.4684 17.0085 18.2095 17.2675 18.2095 17.5696C18.2095 17.8717 18.4727 18.1306 18.7748 18.1306H19.8624C20.1688 18.1306 20.4277 17.8717 20.4277 17.5696C20.4277 17.2675 20.1645 17.0085 19.8624 17.0085Z" fill="white"/>
<path d="M6.13407 7.255C4.30421 7.255 3.38928 8.16131 2.95339 8.89499C1.7752 10.9234 2.60381 14.376 4.04095 16.7064C4.12726 16.8791 4.30421 16.9654 4.52 16.9654C4.95589 16.9654 5.21914 16.4907 4.99904 16.1454C4.34305 15.0665 3.86401 13.7718 3.64823 12.5634C3.43244 11.2686 3.51875 10.1897 3.95464 9.45603C4.39053 8.72235 5.08967 8.3771 6.17723 8.3771C6.48365 8.3771 6.74259 8.11816 6.74259 7.81606C6.65628 7.4708 6.43617 7.255 6.13407 7.255Z" fill="white"/>
<path d="M24.2645 14.6781C23.5653 13.9875 22.6072 13.5991 21.606 13.6423C21.6491 12.6928 21.2995 11.7002 20.5616 11.0097C20.1688 10.6213 19.7329 10.3192 19.2971 10.1466C19.0813 7.0824 17.2471 5.18348 14.0664 5.18348C12.543 5.18348 11.1015 5.83084 10.1003 6.90977C9.88446 5.44242 10.0571 4.4498 10.2729 3.88876C10.5361 3.11193 10.9245 2.85299 10.972 2.85299L10.4067 1.94669C10.3203 1.98984 8.70627 3.06877 8.96953 6.39187C7.96829 5.61504 6.79009 5.18348 5.52558 5.18348C2.03848 5.18348 0.25177 7.42765 0.25177 10.9665C0.25177 13.3402 1.0804 16.2317 2.47438 18.6485C3.95467 21.238 5.78885 22.7053 7.48492 22.7053C8.27039 22.7053 9.05585 22.5327 9.79384 22.1874C10.5361 22.5327 11.3648 22.7053 12.1028 22.7053C13.0608 22.7053 14.1096 22.2306 15.0677 21.2811C15.1971 21.4537 15.3309 21.6264 15.4604 21.7558C15.9394 22.2306 16.6817 22.4895 17.6398 22.4895C20.212 22.4895 24.0918 20.6769 25.0931 18.2601C25.4858 17.3107 25.6153 16.0159 24.2645 14.6781ZM10.1434 21.1085C10.0571 21.0653 9.97077 21.0653 9.88015 21.0653H9.66436C9.57804 21.0653 9.49174 21.0653 9.40111 21.1085C8.74943 21.4106 8.09344 21.5832 7.44176 21.5832C6.17726 21.5832 4.69697 20.2453 3.38931 18.0443C2.08164 15.8433 1.29618 13.0812 1.29618 10.9234C1.29618 9.49919 1.64575 8.33395 2.25427 7.55712C2.95342 6.69398 4.04098 6.21925 5.47812 6.21925C7.0922 6.21925 8.52934 7.0824 9.27164 8.46343C9.35795 8.63606 9.53489 8.76552 9.75068 8.76552C9.96646 8.76552 10.1434 8.63606 10.2297 8.46343C10.972 7.0824 12.4523 6.21925 14.0232 6.21925C16.9881 6.21925 17.9462 8.07501 18.162 9.88761C17.2039 9.88761 16.2458 10.3623 15.3741 11.2686C13.2378 13.4697 11.8006 18.0012 13.4579 19.6411C13.7211 19.9001 14.0664 20.1159 14.416 20.2885C13.6305 21.1516 12.8019 21.5832 12.1071 21.5832C11.4511 21.5832 10.7562 21.4106 10.1477 21.1085H10.1434ZM24.135 17.7854C23.3495 19.6843 19.9056 21.3243 17.683 21.3243C17.0313 21.3243 16.5479 21.1948 16.289 20.9359C16.0257 20.6769 15.8099 20.3317 15.6805 19.9433C15.6373 19.8569 15.5942 19.7706 15.551 19.7275C15.5079 19.6843 15.4215 19.5548 15.2446 19.5117C14.8519 19.3822 14.5454 19.1664 14.2433 18.9075C13.6348 18.3033 13.7211 16.5338 14.5066 14.6781C15.2921 12.8223 16.7292 10.9665 18.2095 10.9665C18.7317 10.9665 19.3014 11.2255 19.7804 11.7434C20.4364 12.3907 20.6522 13.297 20.3889 14.117C20.2595 14.5486 20.6522 14.8938 21.0881 14.8075C21.9167 14.5486 22.8316 14.7644 23.4833 15.4117C24.2688 16.1886 24.4414 16.9654 24.135 17.7854Z" fill="white"/>
<path d="M17.683 4.01822C18.5979 4.01822 19.3402 3.28455 19.3402 2.37825C19.3402 1.47195 18.5979 0.738281 17.683 0.738281C16.7681 0.738281 16.0258 1.47195 16.0258 2.37825C16.0258 3.28455 16.7681 4.01822 17.683 4.01822ZM17.683 1.86036C17.9894 1.86036 18.2484 2.11931 18.2484 2.42141C18.2484 2.72351 17.9851 2.98245 17.683 2.98245C17.3809 2.98245 17.1176 2.68035 17.1176 2.37825C17.1176 2.07615 17.3809 1.86036 17.683 1.86036Z" fill="white"/>
<path d="M1.60259 21.2811C0.860289 21.2811 0.25177 21.8853 0.25177 22.619C0.25177 23.3526 0.860289 23.9569 1.60259 23.9569C2.3449 23.9569 2.95342 23.3526 2.95342 22.619C2.95342 21.8853 2.3449 21.2811 1.60259 21.2811ZM1.60259 22.8779C1.47312 22.8779 1.33934 22.7484 1.33934 22.619C1.33934 22.4895 1.46881 22.36 1.60259 22.36C1.73638 22.36 1.86586 22.4463 1.86586 22.619C1.86586 22.7484 1.73638 22.8779 1.60259 22.8779Z" fill="white"/>
<path d="M22.3051 10.4918C23.3495 10.4918 24.2213 9.62866 24.2213 8.59288C24.2213 7.55711 23.3495 6.69397 22.3051 6.69397C21.2607 6.69397 20.3889 7.55711 20.3889 8.59288C20.3889 9.62866 21.2607 10.4918 22.3051 10.4918ZM22.3051 7.7729C22.741 7.7729 23.1337 8.11816 23.1337 8.59288C23.1337 9.06761 22.7841 9.41287 22.3051 9.41287C21.8261 9.41287 21.4765 9.02446 21.4765 8.59288C21.4765 8.16131 21.8261 7.7729 22.3051 7.7729Z" fill="white"/>
<path d="M5.69824 18.5622C5.98664 18.5622 6.22044 18.3303 6.22044 18.0443C6.22044 17.7583 5.98664 17.5264 5.69824 17.5264C5.40983 17.5264 5.17603 17.7583 5.17603 18.0443C5.17603 18.3303 5.40983 18.5622 5.69824 18.5622Z" fill="white"/>
<path d="M13.3241 3.50033C13.6363 3.50033 13.8894 3.24913 13.8894 2.93927C13.8894 2.62942 13.6363 2.37823 13.3241 2.37823C13.0118 2.37823 12.7587 2.62942 12.7587 2.93927C12.7587 3.24913 13.0118 3.50033 13.3241 3.50033Z" fill="white"/>
<path d="M1.33935 1.8172C1.65439 1.8172 1.9047 2.06751 1.9047 2.37824C1.9047 2.68897 1.65008 2.93928 1.33935 2.93928C1.02861 2.93928 0.773987 2.68897 0.773987 2.37824C0.773987 2.06751 1.02861 1.8172 1.33935 1.8172Z" fill="white"/>
<path d="M21.4765 0.220367C21.7872 0.220367 22.0418 0.470674 22.0418 0.781406C22.0418 1.09214 21.7872 1.34246 21.4765 1.34246C21.1658 1.34246 20.9111 1.09214 20.9111 0.781406C20.9111 0.470674 21.1658 0.220367 21.4765 0.220367Z" fill="white"/>
<path d="M23.1337 3.45718C23.4488 3.45718 23.6991 3.70749 23.6991 4.01822C23.6991 4.32895 23.4444 4.57927 23.1337 4.57927C22.823 4.57927 22.5684 4.32895 22.5684 4.01822C22.5684 3.70749 22.823 3.45718 23.1337 3.45718Z" fill="white"/>
<path d="M23.6559 11.5276C23.971 11.5276 24.2213 11.7779 24.2213 12.0886C24.2213 12.3994 23.9667 12.6497 23.6559 12.6497C23.3452 12.6497 23.0906 12.3994 23.0906 12.0886C23.0906 11.7779 23.3452 11.5276 23.6559 11.5276Z" fill="white"/>
<path d="M23.6559 21.8422C23.9451 21.8422 24.1781 22.0752 24.1781 22.36C24.1781 22.6449 23.9451 22.8779 23.6559 22.8779C23.3668 22.8779 23.1337 22.6449 23.1337 22.36C23.1337 22.0752 23.3668 21.8422 23.6559 21.8422Z" fill="white"/>
<path d="M10.5793 22.8779C10.8943 22.8779 11.1446 23.1282 11.1446 23.439C11.1446 23.7497 10.89 24 10.5793 24C10.2685 24 10.0139 23.7497 10.0139 23.439C10.0139 23.1282 10.2685 22.8779 10.5793 22.8779Z" fill="white"/>
<path d="M0.773982 18.0443C1.06314 18.0443 1.29618 18.2774 1.29618 18.5622C1.29618 18.847 1.06314 19.0801 0.773982 19.0801C0.484828 19.0801 0.25177 18.847 0.25177 18.5622C0.25177 18.2774 0.484828 18.0443 0.773982 18.0443Z" fill="white"/>
</svg>
