<svg width="26" height="24" viewBox="0 0 26 24" fill="none" xmlns="http://www.w3.org/2000/svg">
<path d="M22.2127 21.9583C22.5142 21.9583 22.7586 21.7158 22.7586 21.4167C22.7586 21.1175 22.5142 20.875 22.2127 20.875C21.9113 20.875 21.6669 21.1175 21.6669 21.4167C21.6669 21.7158 21.9113 21.9583 22.2127 21.9583Z" fill="white"/>
<path d="M5.88358 21.9583C6.18503 21.9583 6.42941 21.7158 6.42941 21.4167C6.42941 21.1175 6.18503 20.875 5.88358 20.875C5.58212 20.875 5.33774 21.1175 5.33774 21.4167C5.33774 21.7158 5.58212 21.9583 5.88358 21.9583Z" fill="white"/>
<path d="M15.3544 14.625C15.6586 14.625 15.9002 14.8667 15.9002 15.1667C15.9002 15.4667 15.6544 15.7083 15.3544 15.7083C15.0544 15.7083 14.8086 15.4667 14.8086 15.1667C14.8086 14.8667 15.0544 14.625 15.3544 14.625Z" fill="white"/>
<path d="M23.7711 2.125C24.0752 2.125 24.3169 2.36666 24.3169 2.66666C24.3169 2.96666 24.0711 3.20832 23.7711 3.20832C23.4711 3.20832 23.2252 2.96666 23.2252 2.66666C23.2252 2.36666 23.4711 2.125 23.7711 2.125Z" fill="white"/>
<path d="M24.8211 9.91666C25.1252 9.91666 25.3669 10.1583 25.3669 10.4583C25.3669 10.7583 25.1211 11 24.8211 11C24.5211 11 24.2752 10.7583 24.2752 10.4583C24.2752 10.1583 24.5211 9.91666 24.8211 9.91666Z" fill="white"/>
<path d="M10.6419 15.7083C10.9433 15.7083 11.1877 15.4658 11.1877 15.1667C11.1877 14.8675 10.9433 14.625 10.6419 14.625C10.3404 14.625 10.096 14.8675 10.096 15.1667C10.096 15.4658 10.3404 15.7083 10.6419 15.7083Z" fill="white"/>
<path d="M6.43356 13.625C6.73501 13.625 6.97939 13.3825 6.97939 13.0833C6.97939 12.7842 6.73501 12.5417 6.43356 12.5417C6.1321 12.5417 5.88773 12.7842 5.88773 13.0833C5.88773 13.3825 6.1321 13.625 6.43356 13.625Z" fill="white"/>
<path d="M2.22521 7.83334C2.52938 7.83334 2.77105 8.07501 2.77105 8.37501C2.77105 8.67501 2.52521 8.91667 2.22521 8.91667C1.92521 8.91667 1.67938 8.67501 1.67938 8.37501C1.67938 8.07501 1.92521 7.83334 2.22521 7.83334Z" fill="white"/>
<path d="M24.2752 12.6667C23.8127 12.6667 23.3919 12.8333 23.0961 13.2083L22.0461 14.4167C21.3294 15.2083 20.3211 15.6667 19.2252 15.6667H18.8877C16.7836 15.6667 14.3002 17.6667 14.3002 20.2083V22.9583H12.1961V20.2083C12.1961 17.7083 10.1336 15.6667 7.60856 15.6667H7.27106C6.17522 15.6667 5.1669 15.2083 4.45023 14.4167L3.35439 13.2083C3.05856 12.875 2.63773 12.6667 2.17522 12.6667C1.29189 12.6667 0.575226 13.3333 0.575226 14.2083C0.575226 14.5833 0.700227 14.9583 0.954394 15.25L3.6044 18.2083C4.5294 19.2083 5.83356 19.7917 7.22522 19.7917C7.60439 19.7917 7.94189 20.0833 7.94189 20.5V22.9167H6.34189C6.04606 22.9167 5.79606 23.1667 5.79606 23.4583C5.79606 23.75 6.05023 24 6.34189 24H20.0169C20.3127 24 20.5627 23.75 20.5627 23.4583C20.5627 23.1667 20.3086 22.9167 20.0169 22.9167H18.4169V20.5C18.4169 20.125 18.7127 19.7917 19.1336 19.7917C20.5211 19.7917 21.8252 19.2083 22.7544 18.2083L25.4044 15.25C25.6586 14.9583 25.7836 14.5833 25.7836 14.2083C25.8669 13.375 25.1502 12.6667 24.2669 12.6667H24.2752ZM9.04189 22.9583V20.5417C9.04189 19.5833 8.2419 18.7917 7.27523 18.7917C6.1794 18.7917 5.17106 18.3333 4.45439 17.5417L1.80439 14.5833C1.72106 14.5 1.67939 14.375 1.67939 14.25C1.67939 13.7917 2.26689 13.5417 2.60439 13.9167L3.70023 15.125C4.62523 16.125 5.92939 16.7083 7.31689 16.7083H7.6544C9.5919 16.7083 11.1877 18.2917 11.1877 20.2083V22.9583H9.04189ZM24.6961 14.5833L22.0461 17.5417C21.3294 18.3333 20.3211 18.7917 19.2252 18.7917C18.2586 18.7917 17.4586 19.5833 17.4586 20.5417V22.9583H15.3544V20.2083C15.3544 19.3333 15.7752 18.4583 16.5336 17.75C17.2502 17.0833 18.1336 16.7083 18.8919 16.7083H19.2294C20.6169 16.7083 21.9211 16.125 22.8502 15.125L23.9461 13.9167C24.2836 13.5417 24.8711 13.7917 24.8711 14.25C24.8294 14.375 24.7877 14.5 24.7044 14.5833H24.6961Z" fill="white"/>
<path d="M2.98355 20.375C2.26688 20.375 1.67938 20.9583 1.67938 21.6667C1.67938 22.375 2.26688 22.9583 2.98355 22.9583C3.70022 22.9583 4.28772 22.375 4.28772 21.6667C4.32939 20.9583 3.70022 20.375 2.98355 20.375ZM2.98355 21.9167C2.85855 21.9167 2.72938 21.7917 2.72938 21.6667C2.72938 21.5417 2.85438 21.4167 2.98355 21.4167C3.11272 21.4167 3.23772 21.5417 3.23772 21.6667C3.27939 21.7917 3.15439 21.9167 2.98355 21.9167Z" fill="white"/>
<path d="M24.0211 18.2917C23.3044 18.2917 22.7169 18.875 22.7169 19.5833C22.7169 20.2917 23.3044 20.875 24.0211 20.875C24.7378 20.875 25.3253 20.2917 25.3253 19.5833C25.3669 18.875 24.7378 18.2917 24.0211 18.2917ZM24.0211 19.8333C23.8961 19.8333 23.7669 19.7083 23.7669 19.5833C23.7669 19.4583 23.8919 19.3333 24.0211 19.3333C24.1503 19.3333 24.2753 19.4583 24.2753 19.5833C24.3169 19.7083 24.1919 19.8333 24.0211 19.8333Z" fill="white"/>
<path d="M3.77938 7.87499C3.48355 7.87499 3.23355 8.12498 3.23355 8.41665C3.23355 8.70832 3.48772 8.95834 3.77938 8.95834H6.13771C7.69605 10.8333 10.3461 12.375 12.9127 14.9583C13.1252 15.1667 13.4586 15.1667 13.6711 14.9583C16.4919 12.1667 19.3502 10.5833 20.8669 8.45833H22.2544C22.5502 8.45833 22.8002 8.20834 22.8002 7.91667C22.8002 7.625 22.5461 7.37498 22.2544 7.37498H21.4544C21.7502 6.70832 21.9169 5.95833 21.9169 5.125C21.9169 2.625 19.8544 0.625 17.3711 0.625C15.3502 0.625 14.2586 1.58333 13.3294 3.04166C12.4461 1.54166 11.3086 0.625 9.28772 0.625C6.76272 0.625 4.74188 2.66666 4.74188 5.125C4.74188 6.20833 4.99605 7.08334 5.45855 7.91667H3.77521V7.87499H3.77938ZM13.2919 13.7917C11.1044 11.7083 9.00022 10.3333 7.56688 8.91665H10.6377C10.846 8.91665 11.0586 8.79167 11.1419 8.54167L11.6044 7.12499L12.7419 11.625C12.7836 11.8333 12.9961 12 13.2461 12C13.4961 12 13.7086 11.8333 13.7502 11.625L14.6752 8.37499H19.4711C18.0836 9.99999 15.6836 11.4583 13.2836 13.7917H13.2919ZM5.71688 5.08331C5.71688 3.16665 7.27522 1.62499 9.20855 1.62499C10.8502 1.62499 11.7336 2.29165 12.7836 4.33332C12.9919 4.70832 13.5419 4.70832 13.7086 4.33332C14.7169 2.29165 15.6461 1.62499 17.2836 1.62499C19.2211 1.62499 20.7752 3.16665 20.7752 5.08331C20.7752 5.95831 20.5669 6.66666 20.1877 7.33333H14.2961C14.0419 7.33333 13.8752 7.5 13.7919 7.70834L13.2877 9.5L12.1919 5.125C12.1502 4.91666 11.9377 4.74999 11.6877 4.74999C11.4377 4.74999 11.2252 4.875 11.1835 5.125L10.2586 7.87499H6.68355C6.05022 7.04165 5.71688 6.16665 5.71688 5.08331Z" fill="white"/>
<path d="M2.72939 3.16666C3.61273 3.16666 4.32939 2.45833 4.32939 1.58333C4.32939 0.708329 3.61273 0 2.72939 0C1.84606 0 1.12939 0.708329 1.12939 1.58333C1.12939 2.45833 1.84606 3.16666 2.72939 3.16666ZM2.72939 1.08332C3.02523 1.08332 3.27523 1.33332 3.27523 1.62499C3.27523 1.91665 3.02106 2.16665 2.72939 2.16665C2.43773 2.16665 2.18356 1.91665 2.18356 1.62499C2.22523 1.33332 2.43773 1.08332 2.72939 1.08332Z" fill="white"/>
<path d="M19.0586 11.75C19.0586 12.4583 19.6461 13.0417 20.3627 13.0417C21.0794 13.0417 21.6669 12.4583 21.6669 11.75C21.6669 11.0416 21.0794 10.4583 20.3627 10.4583C19.6461 10.4583 19.0586 11.0416 19.0586 11.75ZM20.6127 11.75C20.6127 11.875 20.4877 12 20.3586 12C20.2294 12 20.1044 11.875 20.1044 11.75C20.1044 11.625 20.2294 11.5 20.3586 11.5C20.4877 11.5 20.6127 11.625 20.6127 11.75Z" fill="white"/>
</svg>
