<svg width="26" height="24" viewBox="0 0 26 24" fill="none" xmlns="http://www.w3.org/2000/svg">
<path d="M14.9991 18.2069C14.9991 17.902 14.7334 17.6406 14.4285 17.6406H13.5922V16.8566C13.5922 16.5517 13.3265 16.2904 13.0216 16.2904C12.7167 16.2904 12.451 16.5517 12.451 16.8566V17.6842H11.6147C11.3055 17.6842 11.0441 17.9455 11.0441 18.2504C11.0441 18.5553 11.3098 18.8167 11.6147 18.8167H12.451V19.6443C12.451 19.9492 12.7167 20.2105 13.0216 20.2105C13.3265 20.2105 13.5922 19.9492 13.5922 19.6443V18.8167H14.4285C14.7378 18.7731 14.9991 18.5118 14.9991 18.2069Z" fill="white"/>
<path d="M5.10289 14.6788C5.42085 14.6788 5.67348 14.9314 5.67348 15.245C5.67348 15.5586 5.4165 15.8113 5.10289 15.8113C4.78927 15.8113 4.53229 15.5586 4.53229 15.245C4.53229 14.9314 4.78927 14.6788 5.10289 14.6788Z" fill="white"/>
<path d="M17.7257 14.6788C18.0437 14.6788 18.2963 14.9314 18.2963 15.245C18.2963 15.5586 18.0394 15.8113 17.7257 15.8113C17.4121 15.8113 17.1552 15.5586 17.1552 15.245C17.1552 14.9314 17.4121 14.6788 17.7257 14.6788Z" fill="white"/>
<path d="M2.90324 5.40109C3.21685 5.40109 3.47384 5.65373 3.47384 5.96734C3.47384 6.28095 3.21685 6.53358 2.90324 6.53358C2.58963 6.53358 2.33264 6.28095 2.33264 5.96734C2.33264 5.65373 2.58963 5.40109 2.90324 5.40109Z" fill="white"/>
<path d="M6.72758 7.57895C7.04555 7.57895 7.29818 7.83158 7.29818 8.14519C7.29818 8.45881 7.04119 8.71144 6.72758 8.71144C6.41397 8.71144 6.15698 8.45881 6.15698 8.14519C6.15698 7.83158 6.41397 7.57895 6.72758 7.57895Z" fill="white"/>
<path d="M8.40019 0.522705C8.7138 0.522705 8.97079 0.775338 8.97079 1.08895C8.97079 1.40256 8.7138 1.65519 8.40019 1.65519C8.08658 1.65519 7.82959 1.40256 7.82959 1.08895C7.82959 0.775338 8.08658 0.522705 8.40019 0.522705Z" fill="white"/>
<path d="M13.9015 2.70056C14.2151 2.70056 14.4721 2.95319 14.4721 3.26681C14.4721 3.58042 14.2151 3.83305 13.9015 3.83305C13.5879 3.83305 13.3309 3.58042 13.3309 3.26681C13.3309 2.95319 13.5879 2.70056 13.9015 2.70056Z" fill="white"/>
<path d="M23.227 2.13431C23.545 2.13431 23.7976 2.38694 23.7976 2.70055C23.7976 3.01416 23.5406 3.2668 23.227 3.2668C22.9134 3.2668 22.6564 3.01416 22.6564 2.70055C22.6564 2.38694 22.9134 2.13431 23.227 2.13431Z" fill="white"/>
<path d="M24.3247 7.57895C24.6383 7.57895 24.8953 7.83158 24.8953 8.14519C24.8953 8.45881 24.6383 8.71144 24.3247 8.71144C24.0111 8.71144 23.7541 8.45881 23.7541 8.14519C23.7541 7.83158 24.0111 7.57895 24.3247 7.57895Z" fill="white"/>
<path d="M24.8953 19.5572C25.2133 19.5572 25.4659 19.8098 25.4659 20.1234C25.4659 20.437 25.2089 20.6896 24.8953 20.6896C24.5817 20.6896 24.3247 20.437 24.3247 20.1234C24.3247 19.8098 24.5817 19.5572 24.8953 19.5572Z" fill="white"/>
<path d="M22.6957 21.735C23.0136 21.735 23.2663 21.9876 23.2663 22.3013C23.2663 22.6149 23.0093 22.8675 22.6957 22.8675C22.382 22.8675 22.1251 22.6149 22.1251 22.3013C22.1251 21.9876 22.382 21.735 22.6957 21.735Z" fill="white"/>
<path d="M3.4303 21.735C3.74392 21.735 4.0009 21.9876 4.0009 22.3013C4.0009 22.6149 3.74392 22.8675 3.4303 22.8675C3.11669 22.8675 2.85968 22.6149 2.85968 22.3013C2.85968 21.9876 3.11669 21.735 3.4303 21.735Z" fill="white"/>
<path d="M1.23063 18.4682C1.54424 18.4682 1.80123 18.7209 1.80123 19.0345C1.80123 19.3481 1.54424 19.6007 1.23063 19.6007C0.91702 19.6007 0.660034 19.3481 0.660034 19.0345C0.660034 18.7209 0.91702 18.4682 1.23063 18.4682Z" fill="white"/>
<path d="M10.5998 8.14519C11.5232 8.14519 12.2724 7.40471 12.2724 6.49001C12.2724 5.57531 11.5232 4.83484 10.5998 4.83484C9.67641 4.83484 8.92725 5.61887 8.92725 6.53357C8.92725 7.44827 9.67641 8.14519 10.5998 8.14519ZM10.5998 5.96733C10.9091 5.96733 11.1704 6.22867 11.1704 6.53357C11.1704 6.83847 10.9047 7.09982 10.5998 7.09982C10.2949 7.09982 10.0292 6.83847 10.0292 6.53357C10.0292 6.22867 10.2949 5.96733 10.5998 5.96733Z" fill="white"/>
<path d="M17.4644 2.70054C18.2136 2.70054 18.8278 2.09074 18.8278 1.35027C18.8278 0.609796 18.2136 0 17.4644 0C16.7152 0 16.1011 0.609796 16.1011 1.35027C16.1011 2.09074 16.7152 2.70054 17.4644 2.70054ZM17.4644 1.08893C17.5951 1.08893 17.7301 1.2196 17.7301 1.35027C17.7301 1.48094 17.5994 1.61161 17.4644 1.61161C17.3294 1.61161 17.1987 1.48094 17.1987 1.35027C17.1987 1.2196 17.2858 1.08893 17.4644 1.08893Z" fill="white"/>
<path d="M2.32831 4.35573C3.25172 4.35573 4.00091 3.61525 4.00091 2.70055C4.00091 1.78585 3.25172 1.04538 2.32831 1.04538C1.4049 1.04538 0.655701 1.78585 0.655701 2.70055C0.655701 3.61525 1.4049 4.35573 2.32831 4.35573ZM2.32831 2.17787C2.63756 2.17787 2.89891 2.43921 2.89891 2.74411C2.89891 3.04901 2.63321 3.31035 2.32831 3.31035C2.02341 3.31035 1.75771 3.04901 1.75771 2.74411C1.80127 2.39566 2.02341 2.17787 2.32831 2.17787Z" fill="white"/>
<path d="M23.7976 10.8893C23.7976 10.5844 23.5319 10.3231 23.227 10.3231H19.5334L21.8637 7.75318C22.3907 8.05808 23.0963 8.01453 23.5363 7.5354L23.9326 7.14338C24.4597 6.62069 24.4597 5.74955 23.9326 5.22687L21.206 2.52632C20.6789 2.00364 19.7991 2.00364 19.272 2.52632L18.8757 2.91833C18.3922 3.39746 18.3486 4.09438 18.6579 4.57351L12.2811 10.3231H2.91197C2.60271 10.3231 2.34137 10.5844 2.34137 10.8893V13.6334C2.34137 16.8566 3.61759 19.6443 5.90434 21.5172V22.4755C5.90434 23.3031 6.60996 24 7.44626 24H18.6187C19.455 24 20.1562 23.3031 20.1562 22.4755V21.5608C22.7522 19.4701 24.0285 16.3339 23.8063 13.1107V10.8893H23.7976ZM19.7947 5.05263C20.0125 4.83485 20.0604 4.4864 19.7947 4.26861L19.6205 4.09438C19.5334 4.00726 19.5334 3.83304 19.6205 3.70236L20.0168 3.31035C20.104 3.22323 20.2826 3.22323 20.4132 3.31035L23.1399 6.0109C23.227 6.09801 23.227 6.27224 23.1399 6.40291L22.7435 6.79492C22.6564 6.88203 22.4778 6.88203 22.3472 6.79492L22.1729 6.62069C21.9551 6.40291 21.6023 6.40291 21.3802 6.62069L18.035 10.3231H13.945L19.7947 5.05263ZM3.4303 11.412H22.6956V12.5009H3.4303V11.412ZM19.002 22.4319C19.002 22.6933 18.8278 22.8675 18.5621 22.8675H7.43318C7.21539 22.8675 6.99327 22.6933 6.99327 22.4319V21.7786H19.002V22.4319ZM10.5998 18.2069C10.5998 16.8566 11.6974 15.7677 13.0651 15.7677C14.4328 15.7677 15.5305 16.8566 15.5305 18.2069C15.5305 19.5572 14.4328 20.6461 13.0651 20.6461C11.6974 20.6461 10.5998 19.5572 10.5998 18.2069ZM19.3548 20.6897H15.6176C16.2317 20.0363 16.6281 19.2087 16.6281 18.2505C16.6281 16.2904 15.0426 14.7223 13.0651 14.7223C11.0876 14.7223 9.50214 16.2904 9.50214 18.2505C9.50214 19.2087 9.89852 20.0799 10.5127 20.6897H8.88364C7.65097 19.6878 6.684 18.3811 6.15696 16.726C6.06984 16.4211 5.76059 16.2904 5.45133 16.3775C5.14208 16.4646 5.0114 16.7695 5.09852 17.0744C5.53845 18.4682 6.28764 19.6878 7.2546 20.7332H6.64046C4.57149 19.078 3.4303 16.5953 3.4303 13.6334H22.6956C22.6956 16.4646 21.5065 18.9909 19.3548 20.6897Z" fill="white"/>
<path d="M19.3984 15.7677H21.071C21.3802 15.7677 21.6416 15.5064 21.6416 15.2015C21.6416 14.8966 21.3323 14.6788 21.0274 14.6788H19.3548C19.0456 14.6788 18.7842 14.9401 18.7842 15.245C18.7842 15.5499 19.0935 15.7677 19.3984 15.7677Z" fill="white"/>
</svg>
